<svg
  xmlns="http://www.w3.org/2000/svg"
  width="32"
  height="32"
  viewBox="0 0 32 32"
  fill="none"
>
  <g clip-path="url(#clip0_6883_9838)">
    <path
      d="M32 16.0084C32 7.15591 24.8441 0 16.0084 0C7.1727 0 0 7.15591 0 16.0084C0 24.8609 7.15591 32.0168 16.0084 32.0168C24.8609 32.0168 32 24.8441 32 16.0084Z"
      fill="#9391F7"
    />
    <path
      d="M13.0183 16.781C14.3958 16.5626 15.3197 15.2692 15.1013 13.8917C14.8829 12.5143 13.5895 11.5904 12.212 11.8088C10.8346 12.0272 9.91074 13.3206 10.1291 14.698C10.3643 16.0755 11.6577 16.9993 13.0183 16.781ZM19.6031 16.781C20.9806 16.5626 21.9044 15.2692 21.6861 13.8917C21.4677 12.5143 20.1743 11.5904 18.7968 11.8088C17.4194 12.0272 16.4955 13.3206 16.7139 14.698C16.9323 16.0755 18.2257 16.9993 19.6031 16.781Z"
      fill="white"
    />
    <path
      d="M15.9076 3.91406C9.07089 3.91406 3.52759 9.55816 3.52759 16.5125H6.68559C6.68559 11.2883 10.7843 7.07207 15.8908 7.07207C21.0142 7.07207 25.0961 11.3051 25.0961 16.5125H28.2541C28.2877 9.55816 22.7444 3.91406 15.9076 3.91406Z"
      fill="white"
    />
  </g>
  <defs>
    <clipPath id="clip0_6883_9838">
      <rect width="32" height="32" rx="16" fill="white" />
    </clipPath>
  </defs>
</svg>
