<svg
  xmlns="http://www.w3.org/2000/svg"
  width="20"
  height="20"
  viewBox="0 0 20 20"
  fill="none"
>
  <path
    d="M10 20C15.5229 20 20 15.5229 20 10C20 4.47715 15.5229 0 10 0C4.47715 0 0 4.47715 0 10C0 15.5229 4.47715 20 10 20Z"
    fill="black"
  />
  <path
    d="M14.6 8.85013C14.8056 7.58013 13.9066 7.00481 13.4022 6.66788C12.9 6.33094 12.1322 6.11010 12.1322 6.11010L12.6233 4.13233L11.49 3.84788L11.0614 5.82566L10.0933 5.59677L10.5219 3.61899L9.3128 3.33444L8.82163 5.31221L6.55 4.70899L6.25888 6.00733C6.25888 6.00733 7.44219 6.30288 7.57219 6.33733C7.70563 6.37079 7.6878 6.43733 7.67663 6.48175C7.66547 6.52619 6.18777 12.3623 6.16554 12.4412C6.14777 12.5212 6.13444 12.5668 6.02444 12.5412L4.76777 12.2257L4.44444 13.5290L6.76444 14.1101L6.29444 16.0012L7.53113 16.3112L7.98888 14.4190L8.77113 14.6123L8.30113 16.5046L9.47888 16.8001L9.95 14.9090L10.8366 15.1312C11.4256 15.2790 13.6633 15.3068 14.15 13.3412C14.6378 11.3746 13.0256 10.5423 13.0256 10.5423C13.0256 10.5423 14.3922 10.1201 14.6 8.85013ZM11.9144 12.4968C11.6811 13.4379 10.6311 13.5101 10.3922 13.4490L8.28663 12.9223L8.90888 10.4090L11.0922 10.9557C11.5111 11.0623 12.1489 11.5557 11.9144 12.4968ZM12.3033 8.66900C12.0544 9.67119 10.9544 9.62569 10.6389 9.54788L8.95 9.16231L9.54331 6.77013L11.1978 7.12119C11.4378 7.18119 12.5533 7.66788 12.3033 8.66900Z"
    fill="#02AAC7"
  />
</svg>
