<svg
  xmlns="http://www.w3.org/2000/svg"
  width="32"
  height="32"
  viewBox="0 0 32 32"
  fill="none"
>
  <path
    d="M16 0.75C24.4223 0.75 31.25 7.57766 31.25 16C31.25 24.4223 24.4223 31.25 16 31.25C7.57766 31.25 0.75 24.4223 0.75 16C0.75 7.57766 7.57766 0.75 16 0.75Z"
    fill="white"
    stroke="#0052FF"
    stroke-width="1.5"
  />
  <path
    d="M23.36 14.1602C23.6889 12.1282 22.2506 11.1877 21.4435 10.6686C20.64 10.1495 19.4115 9.77616 19.4115 9.77616L20.1973 6.61172L18.384 6.15661L17.5982 9.32105L16.1493 8.95483L16.9351 5.79038L15.1004 5.3335L14.3146 8.49794L10.48 7.53438L10.0142 9.41172C10.0142 9.41172 11.9075 9.88461 12.1155 9.93972C12.3289 9.99127 12.3004 10.0997 12.2826 10.1708C12.2649 10.2419 9.90042 19.7797 9.86486 19.9059C9.83642 20.0339 9.81508 20.1068 9.63908 20.0659L7.62842 19.5611L7.11108 21.6464L10.8231 22.5762L10.0711 25.6019L12.0498 26.0979L12.8018 23.0704L14.0338 23.3797L13.2818 26.4073L15.1662 26.8802L15.92 23.8544L17.3386 24.2099C18.2809 24.4464 21.8613 24.4908 22.64 21.3459C23.4204 18.1993 20.8409 16.8677 20.8409 16.8677C20.8409 16.8677 23.0275 16.1922 23.36 14.1602ZM19.0631 19.9948C18.6897 21.5006 17.0098 21.6162 16.6275 21.5184L13.2586 20.6757L14.2542 16.6544L17.7475 17.5291C18.4178 17.6997 19.4382 18.4891 19.0631 19.9948ZM19.6853 13.8704C19.2871 15.4739 17.6871 15.4011 17.1822 15.2766L14.72 14.6597L15.6693 10.8322L17.9164 11.3939C18.3004 11.4899 20.0853 12.2686 19.6853 13.8704Z"
    fill="#0052FF"
  />
</svg>
