<svg
  width="32"
  height="32"
  viewBox="0 0 32 32"
  fill="none"
  xmlns="http://www.w3.org/2000/svg"
>
  <rect width="32" height="32" rx="16" fill="#080810" />
  <path
    d="M11.3932 5.42253C11.3892 5.84524 11.7235 6.18209 12.1458 6.18119C12.5682 6.18029 12.901 5.84524 12.8999 5.42253C12.8988 5.00366 12.5611 4.67447 12.1343 4.67628C11.7233 4.67808 11.3971 5.00637 11.3932 5.42253Z"
    fill="white"
  />
  <path
    d="M16.75 6.89626C16.7496 7.71587 16.0788 8.38607 15.26 8.38449C14.4431 8.38292 13.7709 7.70966 13.77 6.89243C13.7691 6.06888 14.4425 5.39855 15.2697 5.3999C16.0877 5.40103 16.7502 6.07068 16.75 6.89626Z"
    fill="white"
  />
  <path
    d="M20.5866 22.4712C19.754 22.4705 19.0978 21.8112 19.0986 20.9764C19.0996 20.1569 19.7716 19.485 20.5884 19.4868C21.4001 19.4886 22.0762 20.1693 22.0755 20.9841C22.0748 21.8063 21.4082 22.4719 20.5866 22.4712Z"
    fill="white"
  />
  <path
    d="M22.7123 9.91963C23.5355 9.92057 24.1983 9.2563 24.1983 8.43073C24.1983 7.60448 23.5339 6.93438 22.7152 6.93506C21.9029 6.93573 21.2198 7.61778 21.2198 8.42848C21.2198 9.24594 21.8934 9.91876 22.7123 9.91963Z"
    fill="white"
  />
  <path
    d="M11.6071 10.5809C10.8394 10.5991 10.1499 9.93989 10.117 9.18482C10.0779 8.28669 10.7814 7.63393 11.533 7.60149C12.3251 7.56702 13.0813 8.17538 13.0934 9.07711C13.1049 9.93041 12.4174 10.5788 11.6071 10.5809Z"
    fill="white"
  />
  <path
    d="M22.3425 21.7179C22.3414 22.5347 23.0154 23.2106 23.8318 23.2106C24.6494 23.2109 25.3209 22.5383 25.3209 21.719C25.3209 20.8975 24.6526 20.2265 23.8334 20.2261C23.0177 20.2256 22.3436 20.9 22.3425 21.7179Z"
    fill="white"
  />
  <path
    d="M23.7708 15.4069C23.7708 16.2319 23.1076 16.8995 22.2876 16.9001C21.4707 16.9008 20.7897 16.2159 20.7931 15.3972C20.7964 14.5917 21.4759 13.9173 22.286 13.9155C23.1047 13.914 23.7708 14.5829 23.7708 15.4069Z"
    fill="white"
  />
  <path
    d="M12.1514 23.1577C11.3265 23.1566 10.6594 23.8269 10.6597 24.6563C10.6599 25.4725 11.3256 26.1403 12.1398 26.1414C12.9614 26.1425 13.6442 25.4618 13.6397 24.6457C13.6354 23.8373 12.9567 23.1589 12.1514 23.1577Z"
    fill="white"
  />
  <path
    d="M7.00817 19.0674C6.1913 19.0625 5.52561 18.3834 5.53439 17.5641C5.54316 16.7512 6.22123 16.0772 7.02437 16.0835C7.85317 16.0901 8.51639 16.7685 8.50896 17.6027C8.50176 18.4131 7.8264 19.0724 7.00817 19.0674Z"
    fill="white"
  />
  <path
    d="M17.8027 25.3803C17.8016 24.5619 17.1273 23.8914 16.3091 23.8945C15.4765 23.8977 14.8175 24.566 14.824 25.4075C14.8305 26.2482 15.5475 26.8816 16.3251 26.8679C17.1412 26.8534 17.8038 26.1966 17.8027 25.3803Z"
    fill="white"
  />
  <path
    d="M27.5068 14.6686C27.507 15.4874 26.8453 16.1542 26.0316 16.1553C25.2136 16.1564 24.5409 15.4838 24.5414 14.6657C24.5419 13.8453 25.2116 13.1743 26.0296 13.1743C26.8496 13.1743 27.5065 13.8388 27.5068 14.6686Z"
    fill="white"
  />
  <path
    d="M5.96751 12.4512C5.14951 12.4525 4.49394 13.1125 4.49304 13.9358C4.49214 14.7577 5.15131 15.431 5.95873 15.4328C6.78123 15.4351 7.45862 14.7602 7.45794 13.939C7.45749 13.1201 6.78595 12.4498 5.96751 12.4512Z"
    fill="white"
  />
  <path
    d="M19.7515 24.8205C19.7524 24.2802 20.1848 23.8514 20.727 23.853C21.2599 23.8544 21.7008 24.2982 21.6982 24.8307C21.6955 25.3591 21.2556 25.7996 20.7294 25.8007C20.1881 25.8018 19.7506 25.3627 19.7515 24.8205Z"
    fill="white"
  />
  <path
    d="M17.01 22.4558C17.0082 22.8649 17.3488 23.2074 17.7605 23.2108C18.1769 23.2142 18.524 22.8728 18.5252 22.4582C18.5263 22.0434 18.1821 21.6962 17.7688 21.6948C17.3565 21.6935 17.0118 22.0391 17.01 22.4558Z"
    fill="white"
  />
  <path
    d="M15.2186 22.4517C15.2186 22.8676 14.8742 23.2099 14.4577 23.2078C14.0481 23.2058 13.7084 22.8652 13.7047 22.453C13.7012 22.0409 14.0494 21.691 14.462 21.6919C14.8789 21.6928 15.2186 22.0339 15.2186 22.4517Z"
    fill="white"
  />
  <path
    d="M19.1225 7.83736C19.5374 7.84209 19.8782 7.49847 19.8775 7.07555C19.8769 6.66118 19.5389 6.32275 19.1261 6.32275C18.7077 6.32275 18.3657 6.66501 18.3668 7.08253C18.368 7.49149 18.7092 7.83262 19.1225 7.83736Z"
    fill="white"
  />
  <path
    d="M10.3406 18.8467C10.7539 18.8473 11.0988 19.1914 11.0936 19.5976C11.0883 20.0199 10.7501 20.3536 10.3298 20.3516C9.91477 20.3493 9.58047 20.0131 9.58069 19.5981C9.58091 19.1741 9.91274 18.846 10.3406 18.8467Z"
    fill="white"
  />
  <path
    d="M9.19849 22.1018C9.19781 22.5227 9.52405 22.8517 9.94427 22.8541C10.3681 22.8566 10.7051 22.5251 10.7069 22.104C10.7087 21.6944 10.3748 21.353 9.96947 21.3501C9.53775 21.3469 9.19916 21.6771 9.19849 22.1018Z"
    fill="white"
  />
  <path
    d="M25.527 18.1874C25.5276 18.6045 25.1956 18.9459 24.7861 18.9488C24.3661 18.9518 24.0255 18.6061 24.0269 18.1782C24.0284 17.769 24.3712 17.4302 24.7841 17.4302C25.1967 17.4302 25.5263 17.7663 25.527 18.1874Z"
    fill="white"
  />
  <path
    d="M18.5029 10.2965C18.9133 10.2965 19.2481 9.95605 19.2483 9.53852C19.2485 9.11514 18.9142 8.77942 18.4931 8.78077C18.0821 8.78189 17.747 9.121 17.7457 9.53715C17.7444 9.95627 18.0836 10.2965 18.5029 10.2965Z"
    fill="white"
  />
  <path
    d="M20.5839 10.249C20.9945 10.2472 21.3364 10.5863 21.3393 10.9985C21.3423 11.4155 21.0001 11.7621 20.5855 11.7619C20.1774 11.7614 19.8251 11.4137 19.8253 11.0115C19.8253 10.5965 20.1695 10.2506 20.5839 10.249Z"
    fill="white"
  />
  <path
    d="M10.1563 7.36943C10.1574 7.79122 9.81885 8.13281 9.40221 8.13011C8.98714 8.12741 8.6571 7.7928 8.6571 7.37439C8.6571 6.95101 8.98196 6.61776 9.39681 6.61573C9.81748 6.61348 10.1552 6.94853 10.1563 7.36943Z"
    fill="white"
  />
  <path
    d="M9.40407 13.6084C8.9944 13.6071 8.65716 13.9491 8.65784 14.3655C8.65851 14.7799 8.99732 15.1208 9.40722 15.1194C9.82521 15.1183 10.1645 14.7754 10.1615 14.3572C10.1589 13.9462 9.81847 13.61 9.40407 13.6084Z"
    fill="white"
  />
  <path
    d="M9.4116 12.0399C8.99068 12.041 8.65907 11.7134 8.65772 11.2954C8.65637 10.8773 8.98753 10.5388 9.40058 10.5357C9.81452 10.5327 10.1679 10.8811 10.1661 11.2907C10.1643 11.7055 9.82872 12.0388 9.4116 12.0399Z"
    fill="white"
  />
  <path
    d="M23.8363 12.8474C24.2507 12.8466 24.5809 12.5118 24.581 12.0932C24.5808 11.6746 24.246 11.3362 23.8352 11.3394C23.4174 11.3423 23.084 11.6747 23.0829 12.0892C23.0815 12.5108 23.4172 12.8484 23.8363 12.8474Z"
    fill="white"
  />
  <path
    d="M7.39451 21.0469C7.39361 21.4721 7.071 21.7963 6.64895 21.7966C6.2314 21.7966 5.90002 21.4669 5.89687 21.0485C5.89372 20.6305 6.23365 20.29 6.6539 20.2905C7.07167 20.291 7.3954 20.6215 7.39451 21.0469Z"
    fill="white"
  />
  <path
    d="M7.45273 9.54257C7.4516 9.11964 7.1155 8.78031 6.6984 8.78076C6.28693 8.78121 5.95689 9.11852 5.95667 9.53895C5.95622 9.95649 6.28985 10.2965 6.7002 10.2967C7.10965 10.2971 7.45385 9.952 7.45273 9.54257Z"
    fill="white"
  />
</svg>
