<svg
  width="32"
  height="32"
  viewBox="0 0 32 32"
  fill="none"
  xmlns="http://www.w3.org/2000/svg"
>
  <g clip-path="url(#clip0_15162_21584)">
    <path
      d="M15.9999 31.6798C24.6598 31.6798 31.6799 24.6596 31.6799 15.9998C31.6799 7.34 24.6598 0.319824 15.9999 0.319824C7.34012 0.319824 0.319946 7.34 0.319946 15.9998C0.319946 24.6596 7.34012 31.6798 15.9999 31.6798Z"
      fill="url(#paint0_linear_15162_21584)"
    />
    <path
      d="M16 1.93408C8.23196 1.93408 1.93396 8.23008 1.93396 16.0001C1.93396 23.0841 7.17196 28.9461 13.99 29.9201C14.254 29.9601 14.522 29.9901 14.794 30.0121C15.06 30.0361 15.328 30.0501 15.598 30.0581C15.732 30.0621 15.866 30.0641 16 30.0641C16.134 30.0641 16.268 30.0641 16.402 30.0581C16.672 30.0521 16.94 30.0361 17.206 30.0121C17.476 29.9901 17.744 29.9601 18.01 29.9221C24.826 28.9481 30.066 23.0861 30.066 16.0001C30.066 8.23008 23.768 1.93408 16 1.93408Z"
      fill="url(#paint1_linear_15162_21584)"
    />
    <path
      d="M22.146 16.1721L16 5.99414L9.854 16.1721L16 19.7921L22.146 16.1721ZM9.854 17.4981L16 26.1561L22.146 17.4981L16 21.1361L9.854 17.4981Z"
      fill="white"
    />
  </g>
  <defs>
    <linearGradient
      id="paint0_linear_15162_21584"
      x1="27.0879"
      y1="4.91182"
      x2="4.91194"
      y2="27.0858"
      gradientUnits="userSpaceOnUse"
    >
      <stop stop-color="#F2681D" />
      <stop offset="1" stop-color="#F89863" />
    </linearGradient>
    <linearGradient
      id="paint1_linear_15162_21584"
      x1="6.05478"
      y1="25.9453"
      x2="25.9457"
      y2="6.05442"
      gradientUnits="userSpaceOnUse"
    >
      <stop stop-color="#F2681D" />
      <stop offset="1" stop-color="#F89863" />
    </linearGradient>
    <clipPath id="clip0_15162_21584">
      <rect width="32" height="32" fill="white" />
    </clipPath>
  </defs>
</svg>
