<svg
  fill="none"
  height="32"
  width="32"
  viewBox="0 0 32 32"
  xmlns="http://www.w3.org/2000/svg"
>
  <g clip-path="url(#clip0_7854_9332)">
    <path
      d="M16 32C24.8368 32 32 24.8368 32 16C32 7.1632 24.8368 0 16 0C7.1632 0 0 7.1632 0 16C0 24.8368 7.1632 32 16 32Z"
      fill="#1D2229"
    />
    <path d="M12.8961 15.0771H10.2643V17.709H12.8961V15.0771Z" fill="white" />
    <path d="M10.264 12.4453H7.6322V15.0771H10.264V12.4453Z" fill="white" />
    <path d="M7.6318 15.0771H5V17.709H7.6318V15.0771Z" fill="white" />
    <path d="M10.264 17.709H7.6322V20.3408H10.264V17.709Z" fill="white" />
    <path
      d="M25.2245 13.0117C25.039 11.0761 23.3684 10.4264 21.2584 10.2408V9.00098H19.6246V10.1701C19.1954 10.1701 18.7564 10.1783 18.3198 10.1865V9H16.6872V10.2394C16.3334 10.2461 14.1604 10.2442 14.1604 10.2442L14.1555 11.6846L15.519 11.6924V21.1328H14.1561L14.1439 22.5529C14.5398 22.5529 16.3015 22.5607 16.6832 22.5631V23.787H18.3161V22.5922C18.7636 22.6019 19.1978 22.6058 19.6213 22.6052V23.7874H21.2555V22.569C24.0031 22.4124 25.927 21.721 26.1659 19.1416C26.3596 17.064 25.383 16.1376 23.8234 15.7608C24.771 15.2762 25.3625 14.4283 25.2245 13.0117ZM22.9352 18.8174C22.9352 20.847 19.4608 20.615 18.3523 20.6154V17.0175C19.4604 17.0175 22.9347 16.7011 22.9352 18.8174ZM22.177 13.7408C22.177 15.5873 19.2777 15.3707 18.3547 15.3707V12.1071C19.2791 12.1076 22.178 11.815 22.177 13.7408Z"
      fill="white"
    />
  </g>
  <defs>
    <clipPath id="clip0_7854_9332">
      <rect width="32" height="32" fill="white" />
    </clipPath>
  </defs>
</svg>
