<svg
  width="32"
  height="32"
  viewBox="0 0 32 32"
  fill="none"
  xmlns="http://www.w3.org/2000/svg"
>
  <rect width="32" height="32" rx="16" fill="#EE4C01" />
  <path
    d="M26.6605 8L18.318 26.4079H12.8748L4.5 8H10.137L15.5802 22.017L21.0558 8H26.6605ZM15.5802 15.302C16.6125 15.302 17.4485 14.4579 17.4485 13.4157C17.4485 12.3734 16.6125 11.5293 15.5802 11.5293C14.548 11.5293 13.712 12.3734 13.712 13.4157C13.712 14.4579 14.548 15.302 15.5802 15.302ZM24.8245 18.9015C23.7923 18.9015 22.9563 19.7456 22.9563 20.7879C22.9563 21.8301 23.7923 22.6742 24.8245 22.6742C25.8568 22.6742 26.6928 21.8301 26.6928 20.7879C26.6928 19.7456 25.8568 18.9015 24.8245 18.9015Z"
    fill="white"
  />
</svg>
