<svg
  width="32"
  height="32"
  viewBox="0 0 400 400"
  fill="none"
  xmlns="http://www.w3.org/2000/svg"
>
  <g clip-path="url(#clip0_1710_2441)">
    <circle cx="200" cy="200" r="200" fill="#152EC6" />
    <path
      d="M316.337 117.915L228.872 309.059H171.803L84 117.915H143.1L200.168 263.464L257.575 117.915H316.337ZM200.168 193.737C210.991 193.737 219.756 184.972 219.756 174.15C219.756 163.328 210.991 154.563 200.168 154.563C189.346 154.563 180.581 163.328 180.581 174.15C180.581 184.972 189.346 193.737 200.168 193.737ZM293.198 231.114C282.375 231.114 273.61 239.879 273.61 250.701C273.61 261.524 282.375 270.288 293.198 270.288C304.02 270.288 312.785 261.524 312.785 250.701C312.785 239.879 304.02 231.114 293.198 231.114Z"
      fill="white"
    />
  </g>
  <defs>
    <clipPath id="clip0_1710_2441">
      <rect width="400" height="400" fill="white" />
    </clipPath>
  </defs>
</svg>
