<svg
  width="32"
  height="32"
  viewBox="0 0 32 32"
  fill="none"
  xmlns="http://www.w3.org/2000/svg"
>
  <g clip-path="url(#clip0_12159_21841)">
    <path
      d="M16 32C24.8366 32 32 24.8366 32 16C32 7.16344 24.8366 0 16 0C7.16344 0 0 7.16344 0 16C0 24.8366 7.16344 32 16 32Z"
      fill="#D3B25A"
    />
    <path
      fill-rule="evenodd"
      clip-rule="evenodd"
      d="M16.0196 17.1437C18.7712 17.1437 21.0708 16.6785 21.6328 16.0569C21.1556 15.5297 19.4296 15.1145 17.2376 15.0009V16.3141C16.8452 16.3345 16.4372 16.3445 16.0192 16.3445C15.6012 16.3445 15.1932 16.3345 14.8 16.3141V15.0009C12.6088 15.1145 10.882 15.5297 10.4048 16.0569C10.9676 16.6785 13.2676 17.1437 16.0192 17.1437H16.0196ZM20.9084 10.9625V12.7709H17.2376V14.0249C19.816 14.1589 21.7508 14.7101 21.7652 15.3697V16.7449C21.7508 17.4045 19.816 17.9545 17.2376 18.0889V21.1665H14.8004V18.0889C12.222 17.9549 10.288 17.4045 10.2736 16.7449V15.3697C10.288 14.7101 12.222 14.1589 14.8004 14.0249V12.7709H11.1296V10.9625H20.9088H20.9084ZM9.686 8.08447H22.5724C22.8804 8.08447 23.164 8.24647 23.3176 8.50967L27.0716 14.9561C27.266 15.2905 27.2084 15.7125 26.9308 15.9833L16.5972 26.0705C16.262 26.3973 15.7236 26.3973 15.3892 26.0705L5.0684 15.9969C4.7848 15.7193 4.7312 15.2853 4.9404 14.9493L8.9536 8.48967C9.11 8.23847 9.3876 8.08487 9.6864 8.08487L9.686 8.08447Z"
      fill="white"
    />
  </g>
  <defs>
    <clipPath id="clip0_12159_21841">
      <rect width="32" height="32" fill="white" />
    </clipPath>
  </defs>
</svg>
