<svg
  width="20"
  height="21"
  viewBox="0 0 20 21"
  fill="none"
  xmlns="http://www.w3.org/2000/svg"
>
  <path
    d="M20 10.0052C20 4.47244 15.5276 0 10.0052 0C4.48294 0 0 4.47244 0 10.0052C0 15.5381 4.47244 20.0105 10.0052 20.0105C15.5381 20.0105 20 15.5276 20 10.0052Z"
    fill="#9391F7"
  />
  <path
    d="M8.13653 10.4879C8.99742 10.3514 9.57485 9.54304 9.43837 8.68215C9.30188 7.82126 8.49348 7.24383 7.63259 7.38031C6.7717 7.5168 6.19427 8.3252 6.33075 9.18609C6.47774 10.047 7.28613 10.6244 8.13653 10.4879ZM12.252 10.4879C13.1129 10.3514 13.6903 9.54304 13.5539 8.68215C13.4174 7.82126 12.609 7.24383 11.7481 7.38031C10.8872 7.5168 10.3098 8.3252 10.4462 9.18609C10.5827 10.047 11.3911 10.6244 12.252 10.4879Z"
    fill="white"
  />
  <path
    d="M9.94237 2.44629C5.6694 2.44629 2.20483 5.97385 2.20483 10.3203H4.17859C4.17859 7.05521 6.74027 4.42004 9.93187 4.42004C13.134 4.42004 15.6851 7.06571 15.6851 10.3203H17.6589C17.6799 5.97385 14.2153 2.44629 9.94237 2.44629Z"
    fill="white"
  />
  <rect x="10.5" y="10.5" width="9" height="9" rx="2.5" fill="#FFEBD4" />
  <rect x="10.5" y="10.5" width="9" height="9" rx="2.5" stroke="white" />
  <path
    d="M15.5767 12.0009C15.5459 11.9954 15.5168 12.0157 15.5114 12.0472L15.139 14.1982H14.861L14.4886 12.0472C14.4832 12.0157 14.4541 11.9954 14.4233 12.0009C13.1008 12.2617 12.0872 13.4084 12.0036 14.8104C12.0036 14.8123 12 14.8715 12 14.901C12 14.9047 12 14.9084 12 14.9103C12 14.9214 12 14.9325 12 14.9436C12 14.9473 12 14.951 12 14.9565C12 14.9713 12 14.9843 12 14.9991C12 16.4861 13.0427 17.7235 14.4251 17.9972C14.4559 18.0028 14.485 17.9824 14.4905 17.951L14.8629 15.7999H15.1408L15.5114 17.9529C15.5168 17.9843 15.5459 18.0046 15.5767 17.9991C16.8992 17.7364 17.911 16.5897 17.9964 15.1877C17.9964 15.1859 18 15.1267 18 15.0971C18 15.0934 18 15.0897 18 15.0879C18 15.0768 18 15.0657 18 15.0546C18 15.0509 18 15.0472 18 15.0416C18 15.0268 18 15.0139 18 14.9991C18.0018 13.512 16.9591 12.2746 15.5767 12.0009Z"
    fill="#FF4600"
  />
</svg>
