<svg
  width="20"
  height="20"
  viewBox="0 0 20 20"
  fill="none"
  xmlns="http://www.w3.org/2000/svg"
>
  <path
    d="M10 20C15.5228 20 20 15.5228 20 10C20 4.47715 15.5228 0 10 0C4.47715 0 0 4.47715 0 10C0 15.5228 4.47715 20 10 20Z"
    fill="black"
  />
  <path
    d="M9.99938 18.7917C14.8563 18.7917 18.7937 14.8544 18.7937 9.99743C18.7937 5.14047 14.8563 1.20312 9.99938 1.20312C5.14242 1.20312 1.20508 5.14047 1.20508 9.99743C1.20508 14.8544 5.14242 18.7917 9.99938 18.7917Z"
    fill="black"
    stroke="white"
    stroke-width="0.460192"
  />
  <path
    fill-rule="evenodd"
    clip-rule="evenodd"
    d="M8.73981 4.14806L10.4133 3.76172L10.7993 5.43376L12.4728 5.04742L12.8588 6.71949L11.1853 7.10583L9.51185 7.49217L7.83841 7.87851L6.16494 8.26485L6.55098 9.93693L6.93698 11.6089L7.32302 13.281L7.70902 14.953L6.03558 15.3394L5.64954 13.6673L5.26354 11.9953L4.87751 10.3233L4.49147 8.65123L4.10547 6.97915L5.7789 6.59281L5.3929 4.92078L7.06634 4.53444L7.45237 6.20647L9.12585 5.82013L8.73981 4.14806ZM9.38249 14.5667L9.76853 16.2387L8.09505 16.6251L7.70902 14.953L9.38249 14.5667ZM14.0168 11.7356L14.4029 13.4076L12.7294 13.794L13.1154 15.4661L11.442 15.8524L11.0559 14.1804L9.38249 14.5667L8.99645 12.8946L10.6699 12.5083L12.3434 12.1219L14.0168 11.7356ZM13.6308 10.0635L15.3043 9.67719L15.6903 11.3492L14.0168 11.7356L13.6308 10.0635ZM13.2448 8.39153L13.6308 10.0635L11.9574 10.4499L10.2839 10.8362L8.61045 11.2226L8.22441 9.55059L9.89788 9.16421L11.5713 8.77787L13.2448 8.39153ZM13.2448 8.39153L14.9183 8.00515L14.5323 6.33312L12.8588 6.71949L13.2448 8.39153Z"
    fill="white"
  />
  <rect x="10.5" y="10.5" width="9" height="9" rx="2.5" fill="#FFEBD4" />
  <rect x="10.5" y="10.5" width="9" height="9" rx="2.5" stroke="white" />
  <path
    d="M15.5767 12.0009C15.5459 11.9954 15.5168 12.0157 15.5114 12.0472L15.139 14.1982H14.861L14.4886 12.0472C14.4832 12.0157 14.4541 11.9954 14.4233 12.0009C13.1008 12.2617 12.0872 13.4084 12.0036 14.8104C12.0036 14.8123 12 14.8715 12 14.901C12 14.9047 12 14.9084 12 14.9103C12 14.9214 12 14.9325 12 14.9436C12 14.9473 12 14.951 12 14.9565C12 14.9713 12 14.9843 12 14.9991C12 16.4861 13.0427 17.7235 14.4251 17.9972C14.4559 18.0028 14.485 17.9824 14.4905 17.951L14.8629 15.7999H15.1408L15.5114 17.9529C15.5168 17.9843 15.5459 18.0046 15.5767 17.9991C16.8992 17.7364 17.911 16.5897 17.9964 15.1877C17.9964 15.1859 18 15.1267 18 15.0971C18 15.0934 18 15.0897 18 15.0879C18 15.0768 18 15.0657 18 15.0546C18 15.0509 18 15.0472 18 15.0416C18 15.0268 18 15.0139 18 14.9991C18.0018 13.512 16.9591 12.2746 15.5767 12.0009Z"
    fill="#FF4600"
  />
</svg>
