<svg
  xmlns="http://www.w3.org/2000/svg"
  width="20"
  height="20"
  viewBox="0 0 20 20"
  fill="none"
>
  <path
    d="M10 20C15.5229 20 20 15.5229 20 10C20 4.47715 15.5229 0 10 0C4.47715 0 0 4.47715 0 10C0 15.5229 4.47715 20 10 20Z"
    fill="black"
  />
  <path
    d="M14.6 8.85013C14.8056 7.58013 13.9066 7.00481 13.4022 6.66788C12.9 6.33094 12.1322 6.11010 12.1322 6.11010L12.6233 4.13233L11.49 3.84788L11.0614 5.82566L10.0933 5.59677L10.5219 3.61899L9.3128 3.33444L8.82163 5.31221L6.55 4.70899L6.25888 6.00733C6.25888 6.00733 7.44219 6.30288 7.57219 6.33733C7.70563 6.37079 7.6878 6.43733 7.67663 6.48175C7.66547 6.52619 6.18777 12.3623 6.16554 12.4412C6.14777 12.5212 6.13444 12.5668 6.02444 12.5412L4.76777 12.2257L4.44444 13.5290L6.76444 14.1101L6.29444 16.0012L7.53113 16.3112L7.98888 14.4190L8.77113 14.6123L8.30113 16.5046L9.47888 16.8001L9.95 14.9090L10.8366 15.1312C11.4256 15.2790 13.6633 15.3068 14.15 13.3412C14.6378 11.3746 13.0256 10.5423 13.0256 10.5423C13.0256 10.5423 14.3922 10.1201 14.6 8.85013ZM11.9144 12.4968C11.6811 13.4379 10.6311 13.5101 10.3922 13.4490L8.28663 12.9223L8.90888 10.4090L11.0922 10.9557C11.5111 11.0623 12.1489 11.5557 11.9144 12.4968ZM12.3033 8.66900C12.0544 9.67119 10.9544 9.62569 10.6389 9.54788L8.95 9.16231L9.54331 6.77013L11.1978 7.12119C11.4378 7.18119 12.5533 7.66788 12.3033 8.66900Z"
    fill="#02AAC7"
  />
  <rect x="10.5" y="10.5" width="9" height="9" rx="2.5" fill="#FFEBD4" />
  <rect x="10.5" y="10.5" width="9" height="9" rx="2.5" stroke="white" />
  <path
    d="M15.5767 12.0009C15.5459 11.9954 15.5168 12.0157 15.5114 12.0472L15.139 14.1982H14.861L14.4886 12.0472C14.4832 12.0157 14.4541 11.9954 14.4233 12.0009C13.1008 12.2617 12.0872 13.4084 12.0036 14.8104C12.0036 14.8123 12 14.8715 12 14.901C12 14.9047 12 14.9084 12 14.9103C12 14.9214 12 14.9325 12 14.9436C12 14.9473 12 14.951 12 14.9565C12 14.9713 12 14.9843 12 14.9991C12 16.4861 13.0427 17.7235 14.4251 17.9972C14.4559 18.0028 14.485 17.9824 14.4905 17.951L14.8629 15.7999H15.1408L15.5114 17.9529C15.5168 17.9843 15.5459 18.0046 15.5767 17.9991C16.8992 17.7364 17.911 16.5897 17.9964 15.1877C17.9964 15.1859 18 15.1267 18 15.0971C18 15.0934 18 15.0897 18 15.0879C18 15.0768 18 15.0657 18 15.0546C18 15.0509 18 15.0472 18 15.0416C18 15.0268 18 15.0139 18 14.9991C18.0018 13.512 16.9591 12.2746 15.5767 12.0009Z"
    fill="#FF4600"
  />
</svg>
