<svg
  xmlns="http://www.w3.org/2000/svg"
  width="20"
  height="20"
  viewBox="0 0 20 20"
  fill="none"
>
  <path
    d="M10 0.46875C15.264 0.46875 19.5312 4.73604 19.5312 10C19.5312 15.264 15.264 19.5312 10 19.5312C4.73604 19.5312 0.46875 15.264 0.46875 10C0.46875 4.73604 4.73604 0.46875 10 0.46875Z"
    fill="white"
    stroke="#0052FF"
    stroke-width="0.9375"
  />
  <path
    d="M14.6 8.85016C14.8056 7.58016 13.9067 6.99239 13.4022 6.66794C12.9 6.3435 12.1322 6.11016 12.1322 6.11016L12.6233 4.13239L11.49 3.84794L10.9989 5.82572L10.0933 5.59683L10.5845 3.61905L9.43779 3.3335L8.94668 5.31127L6.55001 4.70905L6.2589 5.88239C6.2589 5.88239 7.44224 6.17794 7.57224 6.21239C7.70557 6.24461 7.68779 6.31239 7.67668 6.35683C7.66557 6.40127 6.18779 12.3624 6.16557 12.4413C6.14779 12.5213 6.13446 12.5668 6.02446 12.5413L4.76779 12.2257L4.44446 13.5291L6.76446 14.1102L6.29446 16.0013L7.53112 16.3113L8.00113 14.4191L8.77112 14.6124L8.30113 16.5046L9.4789 16.8002L9.95001 14.9091L10.8367 15.1313C11.4256 15.2791 13.6633 15.3068 14.15 13.3413C14.6378 11.3746 13.0256 10.5424 13.0256 10.5424C13.0256 10.5424 14.3922 10.1202 14.6 8.85016ZM11.9145 12.4968C11.6811 13.4379 10.6311 13.5102 10.3922 13.4491L8.28668 12.9224L8.9089 10.4091L11.0922 10.9557C11.5111 11.0624 12.1489 11.5557 11.9145 12.4968ZM12.3033 8.66905C12.0545 9.67127 11.0545 9.62572 10.7389 9.54794L9.20001 9.16239L9.79335 6.77016L11.1978 7.12127C11.4378 7.18127 12.5533 7.66794 12.3033 8.66905Z"
    fill="#0052FF"
  />
  <rect x="10.5" y="10.5" width="9" height="9" rx="2.5" fill="#FFEBD4" />
  <rect x="10.5" y="10.5" width="9" height="9" rx="2.5" stroke="white" />
  <path
    d="M15.5767 12.0009C15.5459 11.9954 15.5168 12.0157 15.5114 12.0472L15.139 14.1982H14.861L14.4886 12.0472C14.4832 12.0157 14.4541 11.9954 14.4233 12.0009C13.1008 12.2617 12.0872 13.4084 12.0036 14.8104C12.0036 14.8123 12 14.8715 12 14.901C12 14.9047 12 14.9084 12 14.9103C12 14.9214 12 14.9325 12 14.9436C12 14.9473 12 14.951 12 14.9565C12 14.9713 12 14.9843 12 14.9991C12 16.4861 13.0427 17.7235 14.4251 17.9972C14.4559 18.0028 14.485 17.9824 14.4905 17.951L14.8629 15.7999H15.1408L15.5114 17.9529C15.5168 17.9843 15.5459 18.0046 15.5767 17.9991C16.8992 17.7364 17.911 16.5897 17.9964 15.1877C17.9964 15.1859 18 15.1267 18 15.0971C18 15.0934 18 15.0897 18 15.0879C18 15.0768 18 15.0657 18 15.0546C18 15.0509 18 15.0472 18 15.0416C18 15.0268 18 15.0139 18 14.9991C18.0018 13.512 16.9591 12.2746 15.5767 12.0009Z"
    fill="#FF4600"
  />
</svg>
