<svg
  width="20"
  height="20"
  viewBox="0 0 20 20"
  fill="none"
  xmlns="http://www.w3.org/2000/svg"
>
  <g clip-path="url(#clip0_13486_24670)">
    <g clip-path="url(#clip1_13486_24670)">
      <mask
        id="mask0_13486_24670"
        style="mask-type: luminance"
        maskUnits="userSpaceOnUse"
        x="0"
        y="0"
        width="20"
        height="20"
      >
        <path d="M20 0H0V20H20V0Z" fill="white" />
      </mask>
      <g mask="url(#mask0_13486_24670)">
        <path
          d="M10 20C15.523 20 20 15.523 20 10C20 4.477 15.523 0 10 0C4.477 0 0 4.477 0 10C0 15.523 4.477 20 10 20Z"
          fill="#070A0E"
        />
        <path
          fill-rule="evenodd"
          clip-rule="evenodd"
          d="M5.77692 13.3533C5.47792 13.1703 5.29492 12.8453 5.29492 12.4952V10.5412C5.29492 10.3092 5.48392 10.1212 5.71592 10.1223C5.78992 10.1223 5.86292 10.1423 5.92692 10.1793L10.3359 12.7502C10.5939 12.9003 10.7529 13.1763 10.7529 13.4753V15.4993C10.7539 15.7773 10.5289 16.0033 10.2509 16.0033C10.1579 16.0033 10.0659 15.9773 9.98689 15.9293L5.77692 13.3533ZM12.3489 9.6443C12.6069 9.7943 12.7649 10.0713 12.7659 10.3693V14.4772C12.7659 14.5982 12.7009 14.7103 12.5949 14.7693L11.6299 15.3123C11.6179 15.3193 11.6049 15.3243 11.5909 15.3283V13.0472C11.5909 12.7522 11.4359 12.4783 11.1819 12.3262L7.30989 10.0103V7.43524C7.30989 7.20324 7.49889 7.01524 7.73089 7.01624C7.80489 7.01624 7.87789 7.03624 7.94189 7.07324L12.3489 9.6443ZM14.2789 6.61024C14.5379 6.76024 14.6969 7.03724 14.6969 7.33624V13.3363C14.6959 13.4593 14.6279 13.5722 14.5199 13.6313L13.6049 14.1252V9.94824C13.6049 9.65324 13.4499 9.38024 13.1979 9.22824L9.23989 6.85424V4.41227C9.23989 4.33827 9.25989 4.26527 9.29589 4.20127C9.41289 4.00127 9.66989 3.93327 9.86989 4.04927L14.2789 6.61024Z"
          fill="#00D395"
        />
      </g>
    </g>
  </g>
  <rect x="10.5" y="10.5" width="9" height="9" rx="2.5" fill="#FFEBD4" />
  <rect x="10.5" y="10.5" width="9" height="9" rx="2.5" stroke="white" />
  <path
    d="M15.5767 12.0009C15.5459 11.9954 15.5168 12.0157 15.5114 12.0472L15.139 14.1982H14.861L14.4886 12.0472C14.4832 12.0157 14.4541 11.9954 14.4233 12.0009C13.1008 12.2617 12.0872 13.4084 12.0036 14.8104C12.0036 14.8123 12 14.8715 12 14.901C12 14.9047 12 14.9084 12 14.9103C12 14.9214 12 14.9325 12 14.9436C12 14.9473 12 14.951 12 14.9565C12 14.9713 12 14.9843 12 14.9991C12 16.4861 13.0427 17.7235 14.4251 17.9972C14.4559 18.0028 14.485 17.9824 14.4905 17.951L14.8629 15.7999H15.1408L15.5114 17.9529C15.5168 17.9843 15.5459 18.0046 15.5767 17.9991C16.8992 17.7364 17.911 16.5897 17.9964 15.1877C17.9964 15.1859 18 15.1267 18 15.0971C18 15.0934 18 15.0897 18 15.0879C18 15.0768 18 15.0657 18 15.0546C18 15.0509 18 15.0472 18 15.0416C18 15.0268 18 15.0139 18 14.9991C18.0018 13.512 16.9591 12.2746 15.5767 12.0009Z"
    fill="#FF6C15"
  />
  <defs>
    <clipPath id="clip0_13486_24670">
      <rect width="20" height="20" fill="white" />
    </clipPath>
    <clipPath id="clip1_13486_24670">
      <rect width="20" height="20" fill="white" />
    </clipPath>
  </defs>
</svg>
