<svg
  width="20"
  height="20"
  viewBox="0 0 20 20"
  fill="none"
  xmlns="http://www.w3.org/2000/svg"
>
  <g clip-path="url(#clip0_13486_24726)">
    <g clip-path="url(#clip1_13486_24726)">
      <mask
        id="mask0_13486_24726"
        style="mask-type: luminance"
        maskUnits="userSpaceOnUse"
        x="0"
        y="0"
        width="20"
        height="20"
      >
        <path d="M20 0H0V20H20V0Z" fill="white" />
      </mask>
      <g mask="url(#mask0_13486_24726)">
        <path
          d="M10 20C8.65025 20 7.34069 19.7354 6.10739 19.214C4.91639 18.7102 3.84746 17.9891 2.92881 17.0712C2.01087 16.1532 1.28978 15.0836 0.786 13.8926C0.264587 12.6593 0 11.3497 0 10C0 8.65025 0.264587 7.34069 0.786 6.10739C1.28978 4.91639 2.01087 3.84746 2.92881 2.92881C3.84746 2.01087 4.91639 1.28978 6.10739 0.786C7.34069 0.264587 8.65025 0 10 0C11.3497 0 12.6593 0.264587 13.8926 0.786C15.0836 1.28978 16.1526 2.01087 17.0712 2.92881C17.9891 3.84675 18.7102 4.91639 19.214 6.10739C19.7354 7.34069 20 8.65025 20 10C20 11.3497 19.7354 12.6593 19.214 13.8926C18.7102 15.0836 17.9891 16.1526 17.0712 17.0712C16.1532 17.9891 15.0836 18.7102 13.8926 19.214C12.6593 19.7361 11.3497 20 10 20Z"
          fill="white"
        />
        <path
          d="M9.99992 19.47C15.2301 19.47 19.47 15.2301 19.47 9.99988C19.47 4.7697 15.2301 0.529785 9.99992 0.529785C4.7697 0.529785 0.529785 4.7697 0.529785 9.99988C0.529785 15.2301 4.7697 19.47 9.99992 19.47Z"
          fill="black"
        />
        <path
          d="M14.9886 10.0002C14.9886 8.98556 14.6837 8.04156 14.1616 7.25275L15.7104 5.704L14.3176 4.31121L12.7731 5.85569C11.98 5.32299 11.0261 5.01183 10.0009 5.01183C8.98631 5.01183 8.04225 5.31664 7.25343 5.83876L5.70399 4.29004L4.31121 5.68283L5.85569 7.22731C5.32299 8.02037 5.01183 8.97431 5.01183 9.9995C5.01183 11.0141 5.31664 11.9581 5.83876 12.747L4.29004 14.2964L5.68283 15.6892L7.22731 14.1447C8.02037 14.6774 8.97431 14.9886 9.9995 14.9886C11.0141 14.9886 11.9581 14.6837 12.747 14.1616L14.2964 15.7111L15.6892 14.3182L14.1447 12.7737C14.6774 11.9793 14.9886 11.0254 14.9886 10.0002ZM6.9825 10.0002C6.9825 8.33575 8.3365 6.98175 10.0009 6.98175C11.6653 6.98175 13.0193 8.33575 13.0193 10.0002C13.0193 11.6646 11.6653 13.0186 10.0009 13.0186C8.3365 13.0186 6.9825 11.6646 6.9825 10.0002Z"
          fill="white"
        />
      </g>
    </g>
  </g>
  <rect x="10.5" y="10.5" width="9" height="9" rx="2.5" fill="#FFEBD4" />
  <rect x="10.5" y="10.5" width="9" height="9" rx="2.5" stroke="white" />
  <path
    d="M15.5767 12.0009C15.5459 11.9954 15.5168 12.0157 15.5114 12.0472L15.139 14.1982H14.861L14.4886 12.0472C14.4832 12.0157 14.4541 11.9954 14.4233 12.0009C13.1008 12.2617 12.0872 13.4084 12.0036 14.8104C12.0036 14.8123 12 14.8715 12 14.901C12 14.9047 12 14.9084 12 14.9103C12 14.9214 12 14.9325 12 14.9436C12 14.9473 12 14.951 12 14.9565C12 14.9713 12 14.9843 12 14.9991C12 16.4861 13.0427 17.7235 14.4251 17.9972C14.4559 18.0028 14.485 17.9824 14.4905 17.951L14.8629 15.7999H15.1408L15.5114 17.9529C15.5168 17.9843 15.5459 18.0046 15.5767 17.9991C16.8992 17.7364 17.911 16.5897 17.9964 15.1877C17.9964 15.1859 18 15.1267 18 15.0971C18 15.0934 18 15.0897 18 15.0879C18 15.0768 18 15.0657 18 15.0546C18 15.0509 18 15.0472 18 15.0416C18 15.0268 18 15.0139 18 14.9991C18.0018 13.512 16.9591 12.2746 15.5767 12.0009Z"
    fill="#FF6C15"
  />
  <defs>
    <clipPath id="clip0_13486_24726">
      <rect width="20" height="20" fill="white" />
    </clipPath>
    <clipPath id="clip1_13486_24726">
      <rect width="20" height="20" fill="white" />
    </clipPath>
  </defs>
</svg>
