<svg
  width="20"
  height="20"
  viewBox="0 0 20 20"
  fill="none"
  xmlns="http://www.w3.org/2000/svg"
>
  <g id="Tokens/Default" clip-path="url(#clip0_4657_5019)">
    <path
      id="Vector"
      d="M10 20C15.5228 20 20 15.5228 20 10C20 4.47715 15.5228 0 10 0C4.47715 0 0 4.47715 0 10C0 15.5228 4.47715 20 10 20Z"
      fill="#F7931A"
    />
    <path
      id="Vector_2"
      d="M14.5999 8.85016C14.8054 7.58016 13.9066 6.99239 13.4021 6.66794C12.8999 6.3435 12.1321 6.11016 12.1321 6.11016L12.6232 4.13239L11.4899 3.84794L10.9988 5.82572L10.0932 5.59683L10.5843 3.61905L9.43767 3.3335L8.94656 5.31127L6.54989 4.70905L6.25878 5.88239C6.25878 5.88239 7.44211 6.17794 7.57211 6.21239C7.70545 6.24461 7.68767 6.31239 7.67656 6.35683C7.66545 6.40127 6.18767 12.3624 6.16545 12.4413C6.14767 12.5213 6.13434 12.5668 6.02434 12.5413L4.76767 12.2257L4.44434 13.5291L6.76434 14.1102L6.29434 16.0013L7.531 16.3113L8.001 14.4191L8.771 14.6124L8.301 16.5046L9.47878 16.8002L9.94989 14.9091L10.8366 15.1313C11.4254 15.2791 13.6632 15.3068 14.1499 13.3413C14.6377 11.3746 13.0254 10.5424 13.0254 10.5424C13.0254 10.5424 14.3921 10.1202 14.5999 8.85016ZM11.9143 12.4968C11.681 13.4379 10.631 13.5102 10.3921 13.4491L8.28656 12.9224L8.90878 10.4091L11.0921 10.9557C11.511 11.0624 12.1488 11.5557 11.9143 12.4968ZM12.3032 8.66905C12.0543 9.67127 11.0543 9.62572 10.7388 9.54794L9.19989 9.16239L9.79323 6.77016L11.1977 7.12127C11.4377 7.18127 12.5532 7.66794 12.3032 8.66905Z"
      fill="white"
    />
  </g>
  <defs>
    <clipPath id="clip0_4657_5019">
      <rect width="20" height="20" fill="white" />
    </clipPath>
  </defs>
</svg>
