<svg
  width="20"
  height="22"
  viewBox="0 0 20 22"
  fill="none"
  xmlns="http://www.w3.org/2000/svg"
>
  <g clip-path="url(#clip0_10890_12140)">
    <path
      fill-rule="evenodd"
      clip-rule="evenodd"
      d="M12.6797 11.8606H6.91068V13.5265H12.6797C13.1743 13.5265 13.5787 13.1532 13.5787 12.6928C13.5787 12.234 13.1743 11.8606 12.6797 11.8606ZM12.6797 11.8606H6.91068V13.5265H12.6797C13.1743 13.5265 13.5787 13.1532 13.5787 12.6928C13.5787 12.234 13.1743 11.8606 12.6797 11.8606ZM9.99966 1.02734C4.47648 1.02734 0 5.50376 0 11.027C0 16.5487 4.47648 21.0267 9.99966 21.0267C15.523 21.0267 19.9994 16.5487 19.9994 11.027C19.9994 5.50376 15.523 1.02734 9.99966 1.02734ZM15.2445 12.6928C15.2445 14.0725 14.0935 15.1939 12.6797 15.1939H11.9113V16.8597H10.2439V15.1939H8.57801V16.8597H6.91068V15.1939H5.24483V8.52121H3.57744V6.85695H5.24483V8.52121H6.91068V5.19268H8.57801V8.52121H6.91068V10.1933H12.6797C13.1743 10.1933 13.5787 9.82001 13.5787 9.35962C13.5787 8.90075 13.1743 8.52592 12.6797 8.52592H10.2439V5.19268H11.9113V6.86007H12.6797C14.0935 6.86007 15.2445 7.98149 15.2445 9.35962C15.2445 10.0004 14.9973 10.5837 14.5897 11.027C14.9973 11.4687 15.2445 12.0536 15.2445 12.6928ZM12.6797 11.8606H6.91068V13.5265H12.6797C13.1743 13.5265 13.5787 13.1532 13.5787 12.6928C13.5787 12.234 13.1743 11.8606 12.6797 11.8606Z"
      fill="url(#paint0_linear_10890_12140)"
    />
  </g>
  <defs>
    <linearGradient
      id="paint0_linear_10890_12140"
      x1="20"
      y1="11.0289"
      x2="0.000777495"
      y2="11.0289"
      gradientUnits="userSpaceOnUse"
    >
      <stop offset="0.0591242" stop-color="#00FC42" />
      <stop offset="0.637792" stop-color="#00E3B1" />
    </linearGradient>
    <clipPath id="clip0_10890_12140">
      <rect
        width="20"
        height="20.0568"
        fill="white"
        transform="translate(0 0.972656)"
      />
    </clipPath>
  </defs>
</svg>
