<svg
  width="20"
  height="20"
  viewBox="0 0 20 20"
  fill="none"
  xmlns="http://www.w3.org/2000/svg"
>
  <g clip-path="url(#clip0_13486_24792)">
    <g clip-path="url(#clip1_13486_24792)">
      <mask
        id="mask0_13486_24792"
        style="mask-type: luminance"
        maskUnits="userSpaceOnUse"
        x="0"
        y="0"
        width="20"
        height="20"
      >
        <path
          d="M19.0908 0.884277H0.908936V19.1177H19.0908V0.884277Z"
          fill="white"
        />
      </mask>
      <g mask="url(#mask0_13486_24792)">
        <path
          fill-rule="evenodd"
          clip-rule="evenodd"
          d="M12.4359 10.782H7.19137V12.2965H12.4359C12.8856 12.2965 13.2532 11.9571 13.2532 11.5386C13.2532 11.1215 12.8856 10.782 12.4359 10.782ZM12.4359 10.782H7.19137V12.2965H12.4359C12.8856 12.2965 13.2532 11.9571 13.2532 11.5386C13.2532 11.1215 12.8856 10.782 12.4359 10.782ZM9.99953 0.933594C4.97846 0.933594 0.908936 5.00307 0.908936 10.0242C0.908936 15.0439 4.97846 19.1148 9.99953 19.1148C15.0208 19.1148 19.0902 15.0439 19.0902 10.0242C19.0902 5.00307 15.0208 0.933594 9.99953 0.933594ZM14.7676 11.5386C14.7676 12.7928 13.7212 13.8123 12.4359 13.8123H11.7374V15.3266H10.2216V13.8123H8.70713V15.3266H7.19137V13.8123H5.67696V7.7462H4.16115V6.23324H5.67696V7.7462H7.19137V4.72027H8.70713V7.7462H7.19137V9.26628H12.4359C12.8856 9.26628 13.2532 8.92693 13.2532 8.50839C13.2532 8.09124 12.8856 7.75048 12.4359 7.75048H10.2216V4.72027H11.7374V6.23608H12.4359C13.7212 6.23608 14.7676 7.25555 14.7676 8.50839C14.7676 9.09092 14.5428 9.62119 14.1723 10.0242C14.5428 10.4257 14.7676 10.9575 14.7676 11.5386ZM12.4359 10.782H7.19137V12.2965H12.4359C12.8856 12.2965 13.2532 11.9571 13.2532 11.5386C13.2532 11.1215 12.8856 10.782 12.4359 10.782Z"
          fill="url(#paint0_linear_13486_24792)"
        />
      </g>
    </g>
  </g>
  <rect x="10.5" y="10.5" width="9" height="9" rx="2.5" fill="#FFEBD4" />
  <rect x="10.5" y="10.5" width="9" height="9" rx="2.5" stroke="white" />
  <path
    d="M15.5767 12.0009C15.5459 11.9954 15.5168 12.0157 15.5114 12.0472L15.139 14.1982H14.861L14.4886 12.0472C14.4832 12.0157 14.4541 11.9954 14.4233 12.0009C13.1008 12.2617 12.0872 13.4084 12.0036 14.8104C12.0036 14.8123 12 14.8715 12 14.901C12 14.9047 12 14.9084 12 14.9103C12 14.9214 12 14.9325 12 14.9436C12 14.9473 12 14.951 12 14.9565C12 14.9713 12 14.9843 12 14.9991C12 16.4861 13.0427 17.7235 14.4251 17.9972C14.4559 18.0028 14.485 17.9824 14.4905 17.951L14.8629 15.7999H15.1408L15.5114 17.9529C15.5168 17.9843 15.5459 18.0046 15.5767 17.9991C16.8992 17.7364 17.911 16.5897 17.9964 15.1877C17.9964 15.1859 18 15.1267 18 15.0971C18 15.0934 18 15.0897 18 15.0879C18 15.0768 18 15.0657 18 15.0546C18 15.0509 18 15.0472 18 15.0416C18 15.0268 18 15.0139 18 14.9991C18.0018 13.512 16.9591 12.2746 15.5767 12.0009Z"
    fill="#FF4600"
  />
  <defs>
    <linearGradient
      id="paint0_linear_13486_24792"
      x1="19.0908"
      y1="10.0259"
      x2="0.909642"
      y2="10.0259"
      gradientUnits="userSpaceOnUse"
    >
      <stop offset="0.0591242" stop-color="#00FC42" />
      <stop offset="0.637792" stop-color="#00E3B1" />
    </linearGradient>
    <clipPath id="clip0_13486_24792">
      <rect width="20" height="20" fill="white" />
    </clipPath>
    <clipPath id="clip1_13486_24792">
      <rect
        width="18.1818"
        height="20"
        fill="white"
        transform="translate(0.908936)"
      />
    </clipPath>
  </defs>
</svg>
