<svg
  width="20"
  height="20"
  viewBox="0 0 20 20"
  fill="none"
  xmlns="http://www.w3.org/2000/svg"
>
  <g clip-path="url(#clip0_13489_8155)">
    <g clip-path="url(#clip1_13489_8155)">
      <path
        d="M20 10C20 4.47715 15.5228 0 10 0C4.47715 0 0 4.47715 0 10C0 15.5228 4.47715 20 10 20C15.5228 20 20 15.5228 20 10Z"
        fill="#080810"
      />
      <path
        d="M7.12087 3.38926C7.11837 3.65346 7.32731 3.86399 7.59125 3.86342C7.85525 3.86286 8.06325 3.65346 8.06256 3.38926C8.06187 3.12747 7.85081 2.92172 7.58406 2.92286C7.32718 2.92398 7.12331 3.12916 7.12087 3.38926Z"
        fill="white"
      />
      <path
        d="M10.4687 4.31023C10.4685 4.82248 10.0492 5.24136 9.53745 5.24037C9.02689 5.23939 8.60676 4.8186 8.6062 4.30783C8.60564 3.79311 9.02651 3.37416 9.54351 3.375C10.0548 3.37571 10.4688 3.79424 10.4687 4.31023Z"
        fill="white"
      />
      <path
        d="M12.8665 14.0445C12.3461 14.044 11.936 13.632 11.9365 13.1102C11.9371 12.598 12.3571 12.1781 12.8676 12.1792C13.375 12.1803 13.7975 12.6058 13.7971 13.115C13.7966 13.6289 13.38 14.0449 12.8665 14.0445Z"
        fill="white"
      />
      <path
        d="M14.195 6.19983C14.7095 6.20042 15.1238 5.78525 15.1238 5.26927C15.1238 4.75286 14.7085 4.33405 14.1968 4.33447C13.6891 4.33489 13.2622 4.76117 13.2622 5.26786C13.2622 5.77877 13.6832 6.19929 14.195 6.19983Z"
        fill="white"
      />
      <path
        d="M7.25455 6.613C6.77474 6.62438 6.3438 6.21237 6.32324 5.74045C6.2988 5.17912 6.73849 4.77115 7.20824 4.75087C7.7033 4.72933 8.17593 5.10955 8.18349 5.67313C8.19068 6.20645 7.76099 6.61169 7.25455 6.613Z"
        fill="white"
      />
      <path
        d="M13.9641 13.5735C13.9634 14.084 14.3847 14.5064 14.8949 14.5064C15.4059 14.5066 15.8256 14.0862 15.8256 13.5742C15.8256 13.0607 15.4079 12.6414 14.8959 12.6411C14.3861 12.6408 13.9648 13.0623 13.9641 13.5735Z"
        fill="white"
      />
      <path
        d="M14.8567 9.62939C14.8567 10.145 14.4422 10.5623 13.9297 10.5626C13.4191 10.5631 12.9935 10.135 12.9956 9.62333C12.9977 9.11989 13.4224 8.69839 13.9287 8.69727C14.4404 8.69633 14.8567 9.11439 14.8567 9.62939Z"
        fill="white"
      />
      <path
        d="M7.59467 14.4736C7.0791 14.4729 6.66217 14.8919 6.66235 15.4103C6.66248 15.9204 7.07854 16.3378 7.58742 16.3384C8.10092 16.3391 8.52767 15.9137 8.52485 15.4036C8.52217 14.8984 8.09798 14.4744 7.59467 14.4736Z"
        fill="white"
      />
      <path
        d="M4.38015 11.9172C3.86961 11.9141 3.45355 11.4897 3.45904 10.9776C3.46452 10.4696 3.88831 10.0483 4.39028 10.0523C4.90828 10.0564 5.32279 10.4804 5.31814 11.0018C5.31364 11.5083 4.89154 11.9203 4.38015 11.9172Z"
        fill="white"
      />
      <path
        d="M11.1266 15.8627C11.1259 15.3512 10.7045 14.9322 10.1931 14.9341C9.67273 14.9361 9.26086 15.3538 9.26492 15.8797C9.26898 16.4052 9.71711 16.801 10.2031 16.7925C10.7132 16.7834 11.1273 16.3729 11.1266 15.8627Z"
        fill="white"
      />
      <path
        d="M17.1918 9.16782C17.1919 9.67957 16.7783 10.0963 16.2698 10.097C15.7585 10.0977 15.3381 9.67732 15.3384 9.16601C15.3387 8.65326 15.7573 8.23389 16.2685 8.23389C16.781 8.23389 17.1916 8.6492 17.1918 9.16782Z"
        fill="white"
      />
      <path
        d="M3.72965 7.78223C3.2184 7.78304 2.80867 8.19554 2.80811 8.7101C2.80754 9.22379 3.21952 9.6446 3.72416 9.64573C4.23822 9.64717 4.66159 9.22535 4.66117 8.7121C4.66089 8.20029 4.24117 7.78135 3.72965 7.78223Z"
        fill="white"
      />
      <path
        d="M12.3447 15.5129C12.3453 15.1752 12.6155 14.9072 12.9544 14.9082C13.2875 14.9091 13.563 15.1865 13.5614 15.5193C13.5597 15.8495 13.2848 16.1248 12.9559 16.1255C12.6176 16.1262 12.3442 15.8518 12.3447 15.5129Z"
        fill="white"
      />
      <path
        d="M10.6314 14.0347C10.6302 14.2904 10.8431 14.5045 11.1004 14.5066C11.3607 14.5087 11.5776 14.2953 11.5784 14.0362C11.579 13.777 11.3639 13.56 11.1056 13.5591C10.8479 13.5583 10.6325 13.7743 10.6314 14.0347Z"
        fill="white"
      />
      <path
        d="M9.51163 14.0325C9.51163 14.2924 9.29638 14.5064 9.03607 14.5051C8.78007 14.5038 8.56776 14.2909 8.56545 14.0333C8.56326 13.7757 8.78088 13.5571 9.03876 13.5576C9.29932 13.5582 9.51163 13.7714 9.51163 14.0325Z"
        fill="white"
      />
      <path
        d="M11.9516 4.89829C12.2109 4.90125 12.4239 4.68649 12.4234 4.42216C12.4231 4.16318 12.2118 3.95166 11.9538 3.95166C11.6923 3.95166 11.4786 4.16557 11.4792 4.42652C11.48 4.68212 11.6932 4.89533 11.9516 4.89829Z"
        fill="white"
      />
      <path
        d="M6.46298 11.7793C6.72129 11.7797 6.93686 11.9947 6.93361 12.2486C6.93029 12.5125 6.71892 12.7211 6.45623 12.7199C6.19684 12.7184 5.9879 12.5083 5.98804 12.2489C5.98817 11.9839 6.19557 11.7789 6.46298 11.7793Z"
        fill="white"
      />
      <path
        d="M5.74902 13.8136C5.7486 14.0766 5.9525 14.2823 6.21514 14.2838C6.48003 14.2853 6.69066 14.0781 6.69178 13.815C6.69291 13.559 6.48422 13.3456 6.23089 13.3438C5.96106 13.3418 5.74944 13.5481 5.74902 13.8136Z"
        fill="white"
      />
      <path
        d="M15.9544 11.3673C15.9548 11.628 15.7473 11.8414 15.4913 11.8432C15.2288 11.845 15.016 11.629 15.0168 11.3615C15.0178 11.1058 15.232 10.894 15.4901 10.894C15.748 10.894 15.954 11.1041 15.9544 11.3673Z"
        fill="white"
      />
      <path
        d="M11.5643 6.43513C11.8208 6.43513 12.0301 6.22235 12.0302 5.96139C12.0303 5.69678 11.8214 5.48695 11.5582 5.4878C11.3013 5.4885 11.0919 5.70044 11.0911 5.96053C11.0903 6.22248 11.3023 6.43513 11.5643 6.43513Z"
        fill="white"
      />
      <path
        d="M12.8648 6.40528C13.1214 6.40415 13.3351 6.61609 13.3369 6.87372C13.3388 7.13434 13.1249 7.35097 12.8658 7.35084C12.6107 7.35053 12.3905 7.13322 12.3906 6.88184C12.3906 6.62247 12.6058 6.40628 12.8648 6.40528Z"
        fill="white"
      />
      <path
        d="M6.34764 4.60584C6.34833 4.86945 6.13674 5.08295 5.87634 5.08126C5.61692 5.07957 5.41064 4.87044 5.41064 4.60894C5.41064 4.34432 5.61368 4.13604 5.87296 4.13477C6.13588 4.13337 6.34696 4.34277 6.34764 4.60584Z"
        fill="white"
      />
      <path
        d="M5.87753 8.50489C5.62148 8.50407 5.41071 8.71782 5.41113 8.97807C5.41155 9.23707 5.62331 9.45013 5.8795 9.44926C6.14074 9.44857 6.3528 9.23426 6.35092 8.97288C6.3493 8.71601 6.13653 8.50589 5.87753 8.50489Z"
        fill="white"
      />
      <path
        d="M5.88231 7.5251C5.61924 7.52579 5.41198 7.32104 5.41114 7.05979C5.41029 6.79847 5.61727 6.58691 5.87542 6.58497C6.13414 6.5831 6.355 6.80085 6.35387 7.05685C6.35275 7.3161 6.14301 7.52441 5.88231 7.5251Z"
        fill="white"
      />
      <path
        d="M14.8976 8.02943C15.1566 8.02893 15.363 7.81968 15.3631 7.55805C15.3629 7.29643 15.1537 7.08493 14.8969 7.08693C14.6358 7.08874 14.4274 7.29649 14.4268 7.55555C14.4259 7.81905 14.6357 8.03005 14.8976 8.02943Z"
        fill="white"
      />
      <path
        d="M4.62159 13.1544C4.62102 13.4201 4.41939 13.6228 4.15561 13.623C3.89464 13.623 3.68753 13.4169 3.68556 13.1554C3.68359 12.8941 3.89605 12.6813 4.1587 12.6816C4.41981 12.682 4.62214 12.8885 4.62159 13.1544Z"
        fill="white"
      />
      <path
        d="M4.65794 5.96392C4.65723 5.69959 4.44717 5.48751 4.18648 5.48779C3.92931 5.48807 3.72304 5.69889 3.7229 5.96166C3.72262 6.22262 3.93114 6.43513 4.18761 6.43526C4.44351 6.43551 4.65864 6.21982 4.65794 5.96392Z"
        fill="white"
      />
    </g>
  </g>
  <rect x="10.5" y="10.5" width="9" height="9" rx="2.5" fill="#FFEBD4" />
  <rect x="10.5" y="10.5" width="9" height="9" rx="2.5" stroke="white" />
  <path
    d="M15.5767 12.0009C15.5459 11.9954 15.5168 12.0157 15.5114 12.0472L15.139 14.1982H14.861L14.4886 12.0472C14.4832 12.0157 14.4541 11.9954 14.4233 12.0009C13.1008 12.2617 12.0872 13.4084 12.0036 14.8104C12.0036 14.8123 12 14.8715 12 14.901C12 14.9047 12 14.9084 12 14.9103C12 14.9214 12 14.9325 12 14.9436C12 14.9473 12 14.951 12 14.9565C12 14.9713 12 14.9843 12 14.9991C12 16.4861 13.0427 17.7235 14.4251 17.9972C14.4559 18.0028 14.485 17.9824 14.4905 17.951L14.8629 15.7999H15.1408L15.5114 17.9529C15.5168 17.9843 15.5459 18.0046 15.5767 17.9991C16.8992 17.7364 17.911 16.5897 17.9964 15.1877C17.9964 15.1859 18 15.1267 18 15.0971C18 15.0934 18 15.0897 18 15.0879C18 15.0768 18 15.0657 18 15.0546C18 15.0509 18 15.0472 18 15.0416C18 15.0268 18 15.0139 18 14.9991C18.0018 13.512 16.9591 12.2746 15.5767 12.0009Z"
    fill="#FF6C15"
  />
  <defs>
    <clipPath id="clip0_13489_8155">
      <rect width="20" height="20" fill="white" />
    </clipPath>
    <clipPath id="clip1_13489_8155">
      <rect width="20" height="20" fill="white" />
    </clipPath>
  </defs>
</svg>
