<svg
  width="20"
  height="20"
  viewBox="0 0 20 20"
  fill="none"
  xmlns="http://www.w3.org/2000/svg"
>
  <g clip-path="url(#clip0_13489_8313)">
    <g clip-path="url(#clip1_13489_8313)">
      <path
        d="M20 10C20 4.47715 15.5228 0 10 0C4.47715 0 0 4.47715 0 10C0 15.5228 4.47715 20 10 20C15.5228 20 20 15.5228 20 10Z"
        fill="url(#paint0_linear_13489_8313)"
      />
      <path
        d="M3.79474 13.8816L3.77232 9.75325L3.75 5.625L6.4875 5.65202L9.22506 5.67913L9.67794 5.93048C9.92706 6.06871 10.2374 6.32125 10.3675 6.49169L10.6042 6.80156L10.6473 6.24036L10.6904 5.67913H12.716H14.7416L15.142 5.91485C15.5929 6.18044 15.9614 6.58106 16.1338 6.99306C16.2244 7.20963 16.25 7.99475 16.25 10.5547V13.8384H15.5174H14.7847V10.6572C14.7847 7.53356 14.7814 7.47288 14.6034 7.31144C14.4373 7.16069 14.2711 7.14694 12.6132 7.14694H10.8044L10.8157 10.4927L10.827 13.8384H10.0938H9.36044L9.33588 10.6468C9.31331 7.71844 9.29856 7.44244 9.1575 7.30106C9.01975 7.16306 8.81706 7.14694 7.21806 7.14694H5.43246L5.40987 10.5391L5.38737 13.9313L4.59101 13.9064L3.79474 13.8816Z"
        fill="white"
      />
    </g>
  </g>
  <rect x="10.5" y="10.5" width="9" height="9" rx="2.5" fill="#FFEBD4" />
  <rect x="10.5" y="10.5" width="9" height="9" rx="2.5" stroke="white" />
  <path
    d="M15.5767 12.0009C15.5459 11.9954 15.5168 12.0157 15.5114 12.0472L15.139 14.1982H14.861L14.4886 12.0472C14.4832 12.0157 14.4541 11.9954 14.4233 12.0009C13.1008 12.2617 12.0872 13.4084 12.0036 14.8104C12.0036 14.8123 12 14.8715 12 14.901C12 14.9047 12 14.9084 12 14.9103C12 14.9214 12 14.9325 12 14.9436C12 14.9473 12 14.951 12 14.9565C12 14.9713 12 14.9843 12 14.9991C12 16.4861 13.0427 17.7235 14.4251 17.9972C14.4559 18.0028 14.485 17.9824 14.4905 17.951L14.8629 15.7999H15.1408L15.5114 17.9529C15.5168 17.9843 15.5459 18.0046 15.5767 17.9991C16.8992 17.7364 17.911 16.5897 17.9964 15.1877C17.9964 15.1859 18 15.1267 18 15.0971C18 15.0934 18 15.0897 18 15.0879C18 15.0768 18 15.0657 18 15.0546C18 15.0509 18 15.0472 18 15.0416C18 15.0268 18 15.0139 18 14.9991C18.0018 13.512 16.9591 12.2746 15.5767 12.0009Z"
    fill="#FF4600"
  />
  <defs>
    <linearGradient
      id="paint0_linear_13489_8313"
      x1="0"
      y1="0"
      x2="20"
      y2="20"
      gradientUnits="userSpaceOnUse"
    >
      <stop offset="0.409289" stop-color="#259DA8" />
      <stop offset="1" stop-color="#0F3E42" />
    </linearGradient>
    <clipPath id="clip0_13489_8313">
      <rect width="20" height="20" fill="white" />
    </clipPath>
    <clipPath id="clip1_13489_8313">
      <rect width="20" height="20" fill="white" />
    </clipPath>
  </defs>
</svg>
