<svg
  xmlns="http://www.w3.org/2000/svg"
  width="32"
  height="32"
  viewBox="0 0 32 32"
  fill="none"
>
  <rect width="32" height="32" rx="16" fill="url(#paint0_linear_6925_10064)" />
  <path
    d="M6.07158 22.2105L6.03572 15.6052L6 9L10.38 9.04324L14.7601 9.08661L15.4847 9.48877C15.8833 9.70994 16.3798 10.114 16.588 10.3867L16.9667 10.8825L17.0357 9.98457L17.1046 9.08661H20.3456H23.5865L24.2272 9.46376C24.9486 9.8887 25.5383 10.5297 25.8141 11.1889C25.959 11.5354 26 12.7916 26 16.8875V22.1415H24.8278H23.6555V17.0515C23.6555 12.0537 23.6503 11.9566 23.3654 11.6983C23.0996 11.4571 22.8338 11.4351 20.1812 11.4351H17.2871L17.3051 16.7883L17.3232 22.1415H16.15H14.9767L14.9374 17.0349C14.9013 12.3495 14.8777 11.9079 14.652 11.6817C14.4316 11.4609 14.1073 11.4351 11.5489 11.4351H8.69193L8.65579 16.8625L8.6198 22.29L7.34562 22.2503L6.07158 22.2105Z"
    fill="white"
  />
  <defs>
    <linearGradient
      id="paint0_linear_6925_10064"
      x1="0"
      y1="0"
      x2="32"
      y2="32"
      gradientUnits="userSpaceOnUse"
    >
      <stop offset="0.409289" stop-color="#259DA8" />
      <stop offset="1" stop-color="#0F3E42" />
    </linearGradient>
  </defs>
</svg>
