<svg
  width="20"
  height="20"
  viewBox="0 0 20 20"
  fill="none"
  xmlns="http://www.w3.org/2000/svg"
>
  <g clip-path="url(#clip0_13489_8252)">
    <g clip-path="url(#clip1_13489_8252)">
      <mask
        id="mask0_13489_8252"
        style="mask-type: luminance"
        maskUnits="userSpaceOnUse"
        x="0"
        y="0"
        width="20"
        height="20"
      >
        <path d="M20 0H0V20H20V0Z" fill="white" />
      </mask>
      <g mask="url(#mask0_13489_8252)">
        <path
          d="M10 20C15.5229 20 20 15.5229 20 10C20 4.47715 15.5229 0 10 0C4.47715 0 0 4.47715 0 10C0 15.5229 4.47715 20 10 20Z"
          fill="url(#paint0_linear_13489_8252)"
        />
        <path
          d="M5.07808 13.0004V8.29379L8.64742 10.9801V13.0004H9.55842V10.7904C9.55823 10.7083 9.53904 10.6274 9.50229 10.5539C9.4656 10.4804 9.41235 10.4165 9.34673 10.3671L5.01808 7.1081C4.9389 7.04929 4.84497 7.0136 4.74673 7.00498C4.64849 6.99635 4.54977 7.0151 4.46156 7.05923C4.37335 7.10335 4.29909 7.17104 4.24705 7.25479C4.195 7.3386 4.1672 7.43516 4.16675 7.53379V13.0004H5.07808ZM14.9494 13.0004V8.29379L11.3801 10.9801V13.0004H10.4691V10.7904C10.4692 10.7083 10.4884 10.6274 10.5252 10.5539C10.5619 10.4804 10.6152 10.4165 10.6807 10.3671L15.0094 7.10941C15.0885 7.05066 15.1823 7.01498 15.2804 7.00629C15.3785 6.99766 15.4772 7.01629 15.5654 7.06023C15.6535 7.10416 15.7278 7.17173 15.7799 7.25529C15.832 7.33885 15.86 7.43523 15.8607 7.53379V13.0004H14.9494Z"
          fill="white"
        />
      </g>
    </g>
  </g>
  <rect x="10.5" y="10.5" width="9" height="9" rx="2.5" fill="#FFEBD4" />
  <rect x="10.5" y="10.5" width="9" height="9" rx="2.5" stroke="white" />
  <path
    d="M15.5767 12.0009C15.5459 11.9954 15.5168 12.0157 15.5114 12.0472L15.139 14.1982H14.861L14.4886 12.0472C14.4832 12.0157 14.4541 11.9954 14.4233 12.0009C13.1008 12.2617 12.0872 13.4084 12.0036 14.8104C12.0036 14.8123 12 14.8715 12 14.901C12 14.9047 12 14.9084 12 14.9103C12 14.9214 12 14.9325 12 14.9436C12 14.9473 12 14.951 12 14.9565C12 14.9713 12 14.9843 12 14.9991C12 16.4861 13.0427 17.7235 14.4251 17.9972C14.4559 18.0028 14.485 17.9824 14.4905 17.951L14.8629 15.7999H15.1408L15.5114 17.9529C15.5168 17.9843 15.5459 18.0046 15.5767 17.9991C16.8992 17.7364 17.911 16.5897 17.9964 15.1877C17.9964 15.1859 18 15.1267 18 15.0971C18 15.0934 18 15.0897 18 15.0879C18 15.0768 18 15.0657 18 15.0546C18 15.0509 18 15.0472 18 15.0416C18 15.0268 18 15.0139 18 14.9991C18.0018 13.512 16.9591 12.2746 15.5767 12.0009Z"
    fill="#FF4600"
  />
  <defs>
    <linearGradient
      id="paint0_linear_13489_8252"
      x1="10"
      y1="0"
      x2="10"
      y2="20"
      gradientUnits="userSpaceOnUse"
    >
      <stop stop-color="#4FA89B" />
      <stop offset="1" stop-color="#6ACEBB" />
    </linearGradient>
    <clipPath id="clip0_13489_8252">
      <rect width="20" height="20" fill="white" />
    </clipPath>
    <clipPath id="clip1_13489_8252">
      <rect width="20" height="20" fill="white" />
    </clipPath>
  </defs>
</svg>
