<svg
  width="20"
  height="20"
  viewBox="0 0 20 20"
  fill="none"
  xmlns="http://www.w3.org/2000/svg"
>
  <g id="oBTC 1" clip-path="url(#clip0_9763_12495)">
    <path
      id="Vector"
      d="M9.99935 19.5846C15.2921 19.5846 19.5827 15.294 19.5827 10.0013C19.5827 4.70857 15.2921 0.417969 9.99935 0.417969C4.70662 0.417969 0.416016 4.70857 0.416016 10.0013C0.416016 15.294 4.70662 19.5846 9.99935 19.5846Z"
      fill="url(#paint0_linear_9763_12495)"
      stroke="white"
      stroke-width="0.833333"
    />
    <path
      id="Vector_2"
      d="M13.0667 9.6968C13.6985 9.37372 14.1006 8.7993 14.0073 7.84429C13.8852 6.53746 12.8119 6.09946 11.3903 5.97742V4.16797H10.2845V5.92715C9.99728 5.92715 9.70286 5.93433 9.40844 5.94151V4.16797H8.3027V5.97742C7.89614 5.9897 7.42264 5.98371 6.08398 5.97742V7.15498C6.95703 7.13953 7.4151 7.08343 7.52005 7.64322V12.5976C7.4534 13.0418 7.09796 12.9779 6.30656 12.9639L6.08401 14.2779C8.10018 14.2779 8.30273 14.2851 8.30273 14.2851V15.8346H9.40853V14.3066C9.71003 14.3137 10.0044 14.3137 10.2845 14.3137V15.8346H11.3903V14.2851C13.2428 14.1845 14.4812 13.7178 14.6464 11.973C14.7756 10.5728 14.1149 9.94814 13.0667 9.6968ZM9.43003 7.23395C10.0547 7.23395 12.0078 7.04011 12.0078 8.33972C12.0078 9.58197 10.0548 9.4383 9.43003 9.4383V7.23395ZM9.43003 12.9711V10.5441C10.1768 10.5441 12.4635 10.3359 12.4635 11.7576C12.4635 13.1291 10.1768 12.9711 9.43003 12.9711Z"
      fill="white"
    />
  </g>
  <defs>
    <linearGradient
      id="paint0_linear_9763_12495"
      x1="-0.000651049"
      y1="10.0013"
      x2="19.9993"
      y2="10.0013"
      gradientUnits="userSpaceOnUse"
    >
      <stop stop-color="#71F5AE" />
      <stop offset="0.5" stop-color="#3DD983" />
      <stop offset="1" stop-color="#00C056" />
    </linearGradient>
    <clipPath id="clip0_9763_12495">
      <rect width="20" height="20" fill="white" />
    </clipPath>
  </defs>
</svg>
