<svg
  width="20"
  height="20"
  viewBox="0 0 20 20"
  fill="none"
  xmlns="http://www.w3.org/2000/svg"
>
  <g clip-path="url(#clip0_13489_8322)">
    <g clip-path="url(#clip1_13489_8322)">
      <mask
        id="mask0_13489_8322"
        style="mask-type: luminance"
        maskUnits="userSpaceOnUse"
        x="0"
        y="0"
        width="20"
        height="20"
      >
        <path d="M20 0H0V20H20V0Z" fill="white" />
      </mask>
      <g mask="url(#mask0_13489_8322)">
        <path
          d="M9.99935 19.5846C15.2921 19.5846 19.5827 15.294 19.5827 10.0013C19.5827 4.70857 15.2921 0.417969 9.99935 0.417969C4.70662 0.417969 0.416016 4.70857 0.416016 10.0013C0.416016 15.294 4.70662 19.5846 9.99935 19.5846Z"
          fill="url(#paint0_linear_13489_8322)"
          stroke="white"
          stroke-width="0.833333"
        />
        <path
          d="M13.0667 9.6968C13.6985 9.37372 14.1006 8.7993 14.0073 7.84429C13.8852 6.53746 12.8119 6.09946 11.3903 5.97742V4.16797H10.2845V5.92715C9.99728 5.92715 9.70286 5.93433 9.40844 5.94151V4.16797H8.3027V5.97742C7.89614 5.9897 7.42264 5.98371 6.08398 5.97742V7.15498C6.95703 7.13953 7.4151 7.08343 7.52005 7.64322V12.5976C7.4534 13.0418 7.09796 12.9779 6.30656 12.9639L6.08401 14.2779C8.10018 14.2779 8.30273 14.2851 8.30273 14.2851V15.8346H9.40853V14.3066C9.71003 14.3137 10.0044 14.3137 10.2845 14.3137V15.8346H11.3903V14.2851C13.2428 14.1845 14.4812 13.7178 14.6464 11.973C14.7756 10.5728 14.1149 9.94814 13.0667 9.6968ZM9.43003 7.23395C10.0547 7.23395 12.0078 7.04011 12.0078 8.33972C12.0078 9.58197 10.0548 9.4383 9.43003 9.4383V7.23395ZM9.43003 12.9711V10.5441C10.1768 10.5441 12.4635 10.3359 12.4635 11.7576C12.4635 13.1291 10.1768 12.9711 9.43003 12.9711Z"
          fill="white"
        />
      </g>
    </g>
  </g>
  <rect x="10.5" y="10.5" width="9" height="9" rx="2.5" fill="#FFEBD4" />
  <rect x="10.5" y="10.5" width="9" height="9" rx="2.5" stroke="white" />
  <path
    d="M15.5767 12.0009C15.5459 11.9954 15.5168 12.0157 15.5114 12.0472L15.139 14.1982H14.861L14.4886 12.0472C14.4832 12.0157 14.4541 11.9954 14.4233 12.0009C13.1008 12.2617 12.0872 13.4084 12.0036 14.8104C12.0036 14.8123 12 14.8715 12 14.901C12 14.9047 12 14.9084 12 14.9103C12 14.9214 12 14.9325 12 14.9436C12 14.9473 12 14.951 12 14.9565C12 14.9713 12 14.9843 12 14.9991C12 16.4861 13.0427 17.7235 14.4251 17.9972C14.4559 18.0028 14.485 17.9824 14.4905 17.951L14.8629 15.7999H15.1408L15.5114 17.9529C15.5168 17.9843 15.5459 18.0046 15.5767 17.9991C16.8992 17.7364 17.911 16.5897 17.9964 15.1877C17.9964 15.1859 18 15.1267 18 15.0971C18 15.0934 18 15.0897 18 15.0879C18 15.0768 18 15.0657 18 15.0546C18 15.0509 18 15.0472 18 15.0416C18 15.0268 18 15.0139 18 14.9991C18.0018 13.512 16.9591 12.2746 15.5767 12.0009Z"
    fill="#FF6C15"
  />
  <defs>
    <linearGradient
      id="paint0_linear_13489_8322"
      x1="-0.000651442"
      y1="10.0013"
      x2="19.9993"
      y2="10.0013"
      gradientUnits="userSpaceOnUse"
    >
      <stop stop-color="#71F5AE" />
      <stop offset="0.5" stop-color="#3DD983" />
      <stop offset="1" stop-color="#00C056" />
    </linearGradient>
    <clipPath id="clip0_13489_8322">
      <rect width="20" height="20" fill="white" />
    </clipPath>
    <clipPath id="clip1_13489_8322">
      <rect width="20" height="20" fill="white" />
    </clipPath>
  </defs>
</svg>
