<svg
  width="20"
  height="20"
  viewBox="0 0 20 20"
  fill="none"
  xmlns="http://www.w3.org/2000/svg"
>
  <g id="pumpBTC-Icon 1" clip-path="url(#clip0_8018_131135)">
    <g id="Clip path group">
      <mask
        id="mask0_8018_131135"
        style="mask-type: luminance"
        maskUnits="userSpaceOnUse"
        x="0"
        y="0"
        width="20"
        height="20"
      >
        <g id="clip0_3744_132960">
          <path
            id="Vector"
            d="M20 0.0390625H0V19.9612H20V0.0390625Z"
            fill="white"
          />
        </g>
      </mask>
      <g mask="url(#mask0_8018_131135)">
        <g id="Group">
          <path
            id="Vector_2"
            d="M10 19.9612C15.5228 19.9612 20 15.5015 20 10.0002C20 4.49879 15.5228 0.0390625 10 0.0390625C4.47715 0.0390625 0 4.49879 0 10.0002C0 15.5015 4.47715 19.9612 10 19.9612Z"
            fill="#F7931A"
          />
          <path
            id="Vector_3"
            d="M8.54705 4.81641H8.13086V5.23098H8.54705V4.81641Z"
            fill="#69DFFA"
          />
          <path
            id="Vector_4"
            d="M8.96502 4.81641H8.54883V5.23098H8.96502V4.81641Z"
            fill="#69DFFA"
          />
          <path
            id="Vector_5"
            d="M10.6291 4.81641H10.2129V5.23098H10.6291V4.81641Z"
            fill="#69DFFA"
          />
          <path
            id="Vector_6"
            d="M11.0451 4.81641H10.6289V5.23098H11.0451V4.81641Z"
            fill="#69DFFA"
          />
          <path
            id="Vector_7"
            d="M11.4611 4.81641H11.0449V5.23098H11.4611V4.81641Z"
            fill="#69DFFA"
          />
          <path
            id="Vector_8"
            d="M8.13086 5.23438V6.47804H8.96305V5.23438H8.13086Z"
            fill="#69DFFA"
          />
          <path
            id="Vector_9"
            d="M10.2129 5.23438H10.6291V6.47804H9.79688V6.06346H10.2129V5.23438Z"
            fill="#69DFFA"
          />
          <path
            id="Vector_10"
            d="M10.6289 5.23438V6.47804V6.89264H11.461V6.06353V5.23438H10.6289Z"
            fill="#69DFFA"
          />
          <path
            id="Vector_11"
            d="M5.2168 6.0625H5.63299V6.8916H5.2168V6.0625Z"
            fill="#69DFFA"
          />
          <path
            id="Vector_12"
            d="M5.63477 6.0625V6.47708H6.46691V6.0625H5.63477Z"
            fill="#69DFFA"
          />
          <path
            id="Vector_13"
            d="M6.4668 6.0625V6.47708V6.89168H7.7149V6.06254L6.4668 6.0625Z"
            fill="#69DFFA"
          />
          <path
            id="Vector_14"
            d="M7.71484 6.0625H8.13104V6.47708H7.71484V6.0625Z"
            fill="#69DFFA"
          />
          <path
            id="Vector_15"
            d="M8.96484 6.0625V6.47708H9.79703V6.0625H8.96484Z"
            fill="#69DFFA"
          />
          <path
            id="Vector_16"
            d="M11.4609 6.0625V6.47708H12.293V6.0625H11.4609Z"
            fill="#69DFFA"
          />
          <path
            id="Vector_17"
            d="M12.7092 6.0625H12.293V6.89164H12.7092V6.0625Z"
            fill="#69DFFA"
          />
          <path
            id="Vector_18"
            d="M5.63477 6.47656V6.89116H6.46691V6.47656H5.63477Z"
            fill="#69DFFA"
          />
          <path
            id="Vector_19"
            d="M7.71484 6.47656H8.13104V6.89116H7.71484V6.47656Z"
            fill="#69DFFA"
          />
          <path
            id="Vector_20"
            d="M8.13086 6.47656V6.89116H8.96305V6.47656H8.13086Z"
            fill="#69DFFA"
          />
          <path
            id="Vector_21"
            d="M8.96484 6.47656V6.89116H9.79703V6.47656H8.96484Z"
            fill="#69DFFA"
          />
          <path
            id="Vector_22"
            d="M9.79688 6.47656V6.89116H10.6291V6.47656H9.79688Z"
            fill="#69DFFA"
          />
          <path
            id="Vector_23"
            d="M11.4609 6.47656V6.89116H12.293V6.47656H11.4609Z"
            fill="#69DFFA"
          />
          <path
            id="Vector_24"
            d="M5.2168 6.89062H5.63299V7.30522H5.2168V6.89062Z"
            fill="#69DFFA"
          />
          <path
            id="Vector_25"
            d="M5.63477 6.89062V7.30522H6.46691V6.89062H5.63477Z"
            fill="#69DFFA"
          />
          <path
            id="Vector_26"
            d="M6.4668 6.89062V7.30522H6.88275V7.71975H7.7149V6.89062H6.4668Z"
            fill="#69DFFA"
          />
          <path
            id="Vector_27"
            d="M7.71484 6.89062H8.13104V7.71979H7.71484V6.89062Z"
            fill="#69DFFA"
          />
          <path
            id="Vector_28"
            d="M8.13086 6.89062V7.71977H8.96305V6.89062H8.13086Z"
            fill="#69DFFA"
          />
          <path
            id="Vector_29"
            d="M8.96484 6.89062V7.30522H9.79703V6.89062H8.96484Z"
            fill="#69DFFA"
          />
          <path
            id="Vector_30"
            d="M9.79688 6.89062V7.30522H10.6291V6.89062H9.79688Z"
            fill="#69DFFA"
          />
          <path
            id="Vector_31"
            d="M10.6289 6.89062V7.30522H11.461V6.89062H10.6289Z"
            fill="#69DFFA"
          />
          <path
            id="Vector_32"
            d="M11.4609 6.89062V7.30522H11.8769V7.71979H12.293V6.89062H11.4609Z"
            fill="#69DFFA"
          />
          <path
            id="Vector_33"
            d="M12.7092 6.89062H12.293V7.71975H12.7092V6.89062Z"
            fill="#69DFFA"
          />
          <path
            id="Vector_34"
            d="M12.709 7.30469V7.71926H13.5412V7.30469H12.709Z"
            fill="#69DFFA"
          />
          <path
            id="Vector_35"
            d="M13.9591 7.30469H13.543V7.71926H13.9591V7.30469Z"
            fill="#69DFFA"
          />
          <path
            id="Vector_36"
            d="M6.88477 7.71875H7.71691V9.79161H6.88477V8.54795V7.71875Z"
            fill="#69DFFA"
          />
          <path
            id="Vector_37"
            d="M7.71484 7.71875H8.13104V8.54791H7.71484V7.71875Z"
            fill="#69DFFA"
          />
          <path
            id="Vector_38"
            d="M8.13086 7.71875V8.54793H8.96305V7.71875H8.13086Z"
            fill="#69DFFA"
          />
          <path
            id="Vector_39"
            d="M12.2951 7.71875H11.8789V8.54791H12.2951V7.71875Z"
            fill="#69DFFA"
          />
          <path
            id="Vector_40"
            d="M12.293 7.71875H12.7092V8.96242H12.293V7.71875Z"
            fill="#69DFFA"
          />
          <path
            id="Vector_41"
            d="M12.709 7.71875V8.54795H13.5412V7.71875H12.709Z"
            fill="#69DFFA"
          />
          <path
            id="Vector_42"
            d="M13.9591 7.71875H13.543V8.54795H13.9591V7.71875Z"
            fill="#69DFFA"
          />
          <path
            id="Vector_43"
            d="M7.71484 8.55078H8.13104V9.79444H7.71484V8.55078Z"
            fill="#69DFFA"
          />
          <path
            id="Vector_44"
            d="M8.13086 8.55078V9.79444H8.96305V8.55078H8.13086Z"
            fill="#69DFFA"
          />
          <path
            id="Vector_45"
            d="M12.293 8.55078H11.8769V9.37989H11.4609V9.79444H12.293V8.55078Z"
            fill="#69DFFA"
          />
          <path
            id="Vector_46"
            d="M12.709 8.55078V9.37989H13.5412V8.55078H12.709Z"
            fill="#69DFFA"
          />
          <path
            id="Vector_47"
            d="M13.9591 8.55078H13.543V9.37989H13.9591V8.55078Z"
            fill="#69DFFA"
          />
          <path
            id="Vector_48"
            d="M12.293 8.96484H12.7092V9.79403H12.293V8.96484Z"
            fill="#69DFFA"
          />
          <path
            id="Vector_49"
            d="M8.96484 9.37891V9.79346H9.79703V9.37891H8.96484Z"
            fill="#69DFFA"
          />
          <path
            id="Vector_50"
            d="M9.79688 9.37891V9.79346H10.6291V9.37891H9.79688Z"
            fill="#69DFFA"
          />
          <path
            id="Vector_51"
            d="M10.6289 9.37891V9.79346H11.461V9.37891H10.6289Z"
            fill="#69DFFA"
          />
          <path
            id="Vector_52"
            d="M6.87695 9.79297V10.6221H7.70909V9.79297H6.87695Z"
            fill="#0EBFD7"
          />
          <path
            id="Vector_53"
            d="M7.70898 9.79297H8.12516V10.6222H7.70898V9.79297Z"
            fill="#0EBFD7"
          />
          <path
            id="Vector_54"
            d="M8.125 9.79297V10.6222H8.95719V9.79297H8.125Z"
            fill="#0EBFD7"
          />
          <path
            id="Vector_55"
            d="M8.95703 9.79297V10.2076H9.78922V9.79297H8.95703Z"
            fill="#0EBFD7"
          />
          <path
            id="Vector_56"
            d="M9.79102 9.79297V10.2076H10.6231V9.79297H9.79102Z"
            fill="#0EBFD7"
          />
          <path
            id="Vector_57"
            d="M10.6211 9.79297V10.2076H11.4532V9.79297H10.6211Z"
            fill="#0EBFD7"
          />
          <path
            id="Vector_58"
            d="M11.4551 9.79297V10.2076H12.2873V9.79297H11.4551Z"
            fill="#0EBFD7"
          />
          <path
            id="Vector_59"
            d="M12.7014 9.79297H12.2852V10.6221H12.7014V9.79297Z"
            fill="#0EBFD7"
          />
          <path
            id="Vector_60"
            d="M12.7031 10.207H13.5352V10.6216H12.7031V10.207Z"
            fill="#0EBFD7"
          />
          <path
            id="Vector_61"
            d="M13.5352 10.207H14.3673V10.6216H13.5352V10.207Z"
            fill="#0EBFD7"
          />
          <path
            id="Vector_62"
            d="M14.3691 10.207H14.7853V10.6216H14.3691V10.207Z"
            fill="#0EBFD7"
          />
          <path
            id="Vector_63"
            d="M6.8769 10.6211V11.8648V12.2794H6.46094V12.694V13.5231H7.70904V11.8649V10.6211H6.8769Z"
            fill="#0EBFD7"
          />
          <path
            id="Vector_64"
            d="M8.12516 10.6211H7.70898V11.8648H8.12516V10.6211Z"
            fill="#0EBFD7"
          />
          <path
            id="Vector_65"
            d="M8.125 10.6211H8.95719V11.8648H8.125V10.6211Z"
            fill="#0EBFD7"
          />
          <path
            id="Vector_66"
            d="M12.2852 10.6211H12.7014V11.4503H12.2852V10.6211Z"
            fill="#0EBFD7"
          />
          <path
            id="Vector_67"
            d="M12.7031 10.6211V11.8648H13.5352V10.6211H12.7031Z"
            fill="#0EBFD7"
          />
          <path
            id="Vector_68"
            d="M13.5352 10.6211V11.8648H14.3673V10.6211H13.5352Z"
            fill="#0EBFD7"
          />
          <path
            id="Vector_69"
            d="M14.7853 10.6211H14.3691V11.8648H14.7853V10.6211Z"
            fill="#0EBFD7"
          />
          <path
            id="Vector_70"
            d="M12.2852 11.4492H12.7014V12.2783H12.2852V11.4492Z"
            fill="#0EBFD7"
          />
          <path
            id="Vector_71"
            d="M7.70898 11.8672H8.12516V12.6964H7.70898V11.8672Z"
            fill="#0EBFD7"
          />
          <path
            id="Vector_72"
            d="M8.125 11.8672V12.6964H8.95719V11.8672H8.125Z"
            fill="#0EBFD7"
          />
          <path
            id="Vector_73"
            d="M12.7031 11.8672H13.5352V12.6964H12.7031V11.8672Z"
            fill="#0EBFD7"
          />
          <path
            id="Vector_74"
            d="M13.5352 11.8672H14.3673V12.6964H13.5352V11.8672Z"
            fill="#0EBFD7"
          />
          <path
            id="Vector_75"
            d="M14.3691 11.8672H14.7853V12.6964H14.3691V11.8672Z"
            fill="#0EBFD7"
          />
          <path
            id="Vector_76"
            d="M5.62713 12.2812H5.21094V13.5249H5.62713V12.2812Z"
            fill="#0EBFD7"
          />
          <path
            id="Vector_77"
            d="M5.62695 12.2812H6.4591V12.6959H5.62695V12.2812Z"
            fill="#0EBFD7"
          />
          <path
            id="Vector_78"
            d="M8.95703 12.2812H9.78922V12.6959H8.95703V12.2812Z"
            fill="#0EBFD7"
          />
          <path
            id="Vector_79"
            d="M9.79102 12.2812H10.6231V12.6959H9.79102V12.2812Z"
            fill="#0EBFD7"
          />
          <path
            id="Vector_80"
            d="M10.6211 12.2812H11.0373V12.2813H11.4532V13.525H10.6211V12.6959V12.2812Z"
            fill="#0EBFD7"
          />
          <path
            id="Vector_81"
            d="M11.4551 12.2812H12.2873V12.6959H11.4551V12.2812Z"
            fill="#0EBFD7"
          />
          <path
            id="Vector_82"
            d="M12.2852 12.2812H12.7014V13.525H12.2852V12.2812Z"
            fill="#0EBFD7"
          />
          <path
            id="Vector_83"
            d="M5.62695 12.6953V13.5244H6.4591V12.6953H5.62695Z"
            fill="#0EBFD7"
          />
          <path
            id="Vector_84"
            d="M7.70898 12.6953H8.12516V13.5244H7.70898V12.6953Z"
            fill="#0EBFD7"
          />
          <path
            id="Vector_85"
            d="M8.125 12.6953V13.5244H8.95719V12.6953H8.125Z"
            fill="#0EBFD7"
          />
          <path
            id="Vector_86"
            d="M8.95703 12.6953V13.5244H9.78922V12.6953H8.95703Z"
            fill="#0EBFD7"
          />
          <path
            id="Vector_87"
            d="M9.79102 12.6953V13.5244H10.207H10.6231V12.6953H9.79102Z"
            fill="#0EBFD7"
          />
          <path
            id="Vector_88"
            d="M11.4551 12.6953V13.5244H12.2873V12.6953H11.4551Z"
            fill="#0EBFD7"
          />
          <path
            id="Vector_89"
            d="M12.7031 12.6953H13.5352V13.5244H12.7031V12.6953Z"
            fill="#0EBFD7"
          />
          <path
            id="Vector_90"
            d="M8.125 13.5234H8.95719V13.9381H8.125V13.5234Z"
            fill="#0EBFD7"
          />
          <path
            id="Vector_91"
            d="M10.2051 13.5234H10.6212V13.938H10.2051V13.5234Z"
            fill="#0EBFD7"
          />
          <path
            id="Vector_92"
            d="M10.6211 13.5234V13.9381V15.1817H11.4532V14.3526V13.5234H10.6211Z"
            fill="#0EBFD7"
          />
          <path
            id="Vector_93"
            d="M8.125 13.9375V15.1812H8.95719L8.95711 13.9375H8.125Z"
            fill="#0EBFD7"
          />
          <path
            id="Vector_94"
            d="M10.6212 13.9375H10.2051V15.1812H10.6212V13.9375Z"
            fill="#0EBFD7"
          />
          <path
            id="Vector_95"
            fill-rule="evenodd"
            clip-rule="evenodd"
            d="M7.71035 3.57422H7.29416V3.98879H6.87821V4.40335V4.81792H6.46225V5.23248H6.87821H6.87845H7.2944V4.81792V4.40336V3.98879H7.71035V3.57422ZM8.12673 3.57422H7.71057V3.98879H8.12673V3.57422ZM8.12697 3.57422H8.54291H8.54314H8.95908V3.98879H8.54314H8.54291H8.12697V3.57422ZM8.95923 3.57422H9.37517H9.37541H9.79134V3.98879H9.37541H9.37517H8.95923V3.57422ZM9.79158 3.57422H10.2075H10.2078H10.6237V3.98879H10.2078H10.2075H9.79158V3.57422ZM10.6239 3.57422H11.0399H11.0401H11.4561V3.98879H11.0401H11.0399H10.6239V3.57422ZM11.4561 3.57422H11.8724V3.98879H12.2884V4.40336H11.8722V3.98879H11.4561V3.57422ZM12.2887 4.40335H12.7049V4.81792V5.23248H12.2887V4.81792V4.40335ZM5.62928 5.23248H5.21341L4.79745 5.23252V5.64709H4.38126V5.23251H4.79721V4.81795H5.21309L5.62928 4.81792V5.23248ZM6.04584 4.81792H5.62988V5.23248H6.04584H6.04608H6.46203V4.81792H6.04608H6.04584ZM12.7049 4.81792H13.1209H13.1211H13.537V5.23248H13.1211H13.1209H12.7049V4.81792ZM3.96484 5.23251H4.38104V5.64708V6.06164V6.47621V6.89078H3.96484V6.47621V6.06165V5.64709V5.23251ZM13.5373 5.23251H13.9535V5.64704V6.0616H14.3695V6.47618H13.9532V6.06161H13.5373V5.64709V5.23251ZM14.7859 6.0616H14.3696V6.47618H14.7859V6.0616ZM15.2018 6.47621H14.7856V6.89078H15.2018V6.47621ZM3.96484 6.89078H4.38104V7.30536V7.71992H3.96484V7.30538V6.89078ZM15.2018 6.89078H14.7856V7.30538V7.71995H15.2018V7.30538V6.89078ZM3.96484 7.71992H4.38104V8.13448H3.96484V7.71992ZM4.79745 7.71998H4.38126V8.13455H4.79721V8.54911H5.21309H5.21341H5.62928V8.13448H5.21341H5.21309H4.79745V7.71998ZM14.7856 7.71995H15.2018V8.13448V8.54911H14.7856V8.13455V7.71995ZM6.04608 8.13448H5.62988V8.54911H6.04608V8.13448ZM6.04608 8.54911H5.62988V8.96366V9.37821V9.79276H6.04608V9.37821V8.96366V8.54911ZM14.7856 8.54911H15.2018V8.96366V9.37821H14.7856V8.96366V8.54911ZM15.2024 9.37821H15.6185V9.79276H15.2024V9.37821ZM6.04608 9.79276H5.62988V10.2073V10.2074V10.6219H6.04608V10.2074V10.2073V9.79276ZM15.6179 9.79276H16.0341V10.2073V10.2074V10.6219H15.6179V10.2074V10.2073V9.79276ZM6.04608 10.6219H5.62988V11.0365V11.4511H6.04608V11.0365V10.6219ZM15.6179 10.6219H16.0341V11.0365V11.4511V11.8656H15.6179V11.4511V11.0365V10.6219ZM5.21309 11.0365H4.79721V11.4511H4.38126V11.8656H4.79745V11.4511H5.21309H5.21341H5.62928V11.0365H5.21341H5.21309ZM4.38104 11.8656H3.96484V12.2802H4.38104V11.8656ZM15.6179 11.8656H16.0341V12.2802V12.2802V12.6948H15.6179V12.2802V12.2802V11.8656ZM4.38104 12.2802H3.96484V12.6948V12.6949V13.1093V13.5239H4.38104V13.1093V12.6949V12.6948V12.2802ZM15.6179 12.6948H16.0341V13.1093H15.6185V13.5239H15.2024V13.1093H15.6179V12.6948ZM4.38104 13.5239H3.96484V13.9385V14.3531H4.38104V13.9385V13.5239ZM14.3696 13.524H14.7856H14.7859H15.2018V13.9385H14.7859H14.7856H14.3696V13.524ZM14.7859 13.9385H14.3696V14.3532H14.7859V13.9385ZM4.38126 14.3531H4.79721H4.79745H5.21309H5.21341H5.62928V14.7676H5.21341H5.21309H4.79745H4.79721H4.38126V14.3531ZM6.04584 14.3531H5.62988V14.7676H6.04584H6.04608H6.46203V14.3531H6.04608H6.04584ZM6.87821 14.3531H6.46225V14.7676H6.87821V15.1822H7.2944V14.7676V14.3531H6.87845H6.87821ZM12.7049 14.3531H12.2887V14.7676V15.1822H12.7049V14.7676V14.3531ZM12.7049 14.3531H13.1209H13.1211H13.537V14.7676H13.1211H13.1209H12.7049V14.3531ZM13.5373 14.3531H13.9532H13.9535H14.3695V14.7676H13.9535H13.9532H13.5373V14.3531ZM6.87821 15.1822H7.2944V15.5968V16.0114H7.71035V16.4259H7.29416V16.0114H6.87821V15.5968V15.1822ZM12.7049 15.1822H12.2887V15.5968H12.7049V15.1822ZM12.2884 15.5967H11.8722V16.0114H12.2884V15.5967ZM8.12673 16.0114H7.71057V16.4259H8.12673V16.0114ZM8.12697 16.0114H8.54291H8.54314H8.95908V16.4259H8.54314H8.54291H8.12697V16.0114ZM8.95923 16.0114H9.37517H9.37541H9.79134V16.4259H9.37541H9.37517H8.95923V16.0114ZM9.79158 16.0114H10.2075H10.2078H10.6237V16.4259H10.2078H10.2075H9.79158V16.0114ZM10.6239 16.0114H11.0399H11.0401H11.4561V16.4259H11.0401H11.0399H10.6239V16.0114ZM11.4561 16.0114H11.8724V16.4259H11.4561V16.0114ZM10.2075 8.13448H9.79158V8.54911H10.2075H10.2078H10.6237V8.13448H10.2078H10.2075ZM10.6239 8.13448H11.0401V8.54911H10.6239V8.13448ZM10.2075 11.0365H9.79158V11.4511H10.2075H10.2078H10.6237V11.0365H10.2078H10.2075ZM11.0399 11.0365H10.6239V11.4511H11.0399H11.0401H11.4561V11.0365H11.0401H11.0399Z"
            fill="white"
          />
          <path
            id="Vector_96"
            fill-rule="evenodd"
            clip-rule="evenodd"
            d="M8.12652 3.98828H8.54253H8.54277H8.9587V4.40286V4.81746H8.54277H8.54253H8.12652V4.40286V3.98828ZM7.70995 3.9883H7.29376V4.40287V4.81747V5.23203H6.87804H6.8778H6.46185V5.64656V6.06113H6.8778H6.87804L7.29376 6.06117H7.70995V5.6466V5.23204V4.81747V4.40287V3.9883ZM8.12636 3.9883H7.71017V4.40287V4.81743V5.232V5.6466V6.06117H8.12636V5.6466V5.232V4.81747V4.40287V3.9883ZM8.95878 3.9883H9.37472H9.37495H9.79097V4.40287V4.81744V5.232V5.64656V6.06113H9.37495H9.37472H8.95878V5.6466V5.232V4.81743V4.40287V3.9883ZM9.79112 3.9883H10.2071H10.2074H10.6233V4.40287V4.81744H10.2074V5.232V5.64656V6.06113H9.79112V5.6466V5.232V4.81743V4.40287V3.9883ZM10.6235 3.98828H11.0395H11.0397H11.4557V4.40286L11.8717 4.4029H12.288V4.81743V5.232V5.6466V6.06117H11.872H11.8717H11.4558V5.6466V5.232V4.81748H11.4169L11.0397 4.81746H11.0395H10.6235V4.40286V3.98828ZM11.4558 3.9883H11.872V4.40287H11.4558V3.9883ZM4.79681 5.23203H5.21269H5.213H5.62888V5.6466V6.06117H5.213V6.47573V6.89034V7.30489H5.62888V7.71946V8.13407L5.21269 8.13399H4.79681V7.71946H4.38086V7.3049V6.8903V6.47569V6.06117V5.6466H4.79681V5.23203ZM5.62948 5.23203H6.04544H6.04567H6.46162V5.64656V6.06113H6.04567H6.04544H5.62948V5.6466V5.23203ZM12.2882 5.23203H12.7045V5.64656V6.06113H12.2882V5.6466V5.23203ZM13.1205 5.23203H12.7045V5.64656V6.06113V6.47569V6.8903V7.3049H13.1205H13.1207H13.5367V6.8903V6.47569V6.06113V5.6466V5.23203H13.1207H13.1205ZM13.9531 6.06112H13.5369V6.47569V6.8903V7.3049H13.9528V7.71942V8.13399V8.54862V8.96318V9.37773H13.5369V9.79228V10.2069H13.9528H13.9531H14.369V9.79228V9.37773V8.96318V8.54862V8.13399V7.71942V7.3049V6.8903V6.47572L13.9531 6.47569V6.06112ZM14.3692 6.47572H14.7854V6.8903V7.3049V7.71946V8.13399V8.54862V8.96318V9.37773H15.2014V9.79228V10.2069V10.6215V11.036V11.4506V11.8651V12.2797V12.2798V12.6942V13.1089V13.5234H14.7854H14.7852H14.3692V13.1089V12.6943L14.7852 12.6942V12.2798V12.2797V11.8651V11.4506V11.036V10.6215V10.2069H14.3692V9.79228V9.37773V8.96318V8.54862V8.13407V7.71946V7.3049V6.8903V6.47572ZM6.04544 7.30485H5.62948V7.71942V8.13399H6.04544V8.54862V8.96318V9.37773V9.79228V10.2068V10.2069V10.6214V11.036V11.4505H5.62948V11.8651V12.2797H6.04544H6.04567H6.46162V11.8651V11.4506V11.4505V11.036V10.6214V10.2069V10.2068V9.79228V9.37773V8.96318V8.54862V8.13399V7.71942V7.30485H6.04567H6.04544ZM6.87804 7.30485H6.46185V7.71942V8.13399V8.54862V8.96318V9.37773V9.79228V10.2068V10.2069V10.6214V11.036V11.4505V11.4506V11.8651V12.2797H6.87804V11.8651V11.4506V11.4505V11.036V10.6214V10.2069V10.2068V9.79228V9.37773V8.96318V8.54862V8.13399V7.71942V7.30485ZM13.1205 9.37773H12.7045V9.79228V10.2069H13.1205H13.1207H13.5367V9.79228V9.37773H13.1207H13.1205ZM15.6181 9.79228H15.2019V10.2068V10.2069V10.6214V11.036V11.4505V11.4506V11.8651V12.2797V12.6942V13.1089H15.6181V12.6942V12.2797V11.8651V11.4506V11.4505V11.036V10.6214V10.2069V10.2068V9.79228ZM4.79681 11.4506H5.213H5.62888V11.8652V12.2798H5.213V12.6943V13.1089V13.5235H5.62888V13.938V14.3526H5.213L4.79705 14.3527H4.38086V13.938V13.5234V13.1089V12.6942V12.2798V12.2797V11.8652L4.79681 11.8651V11.4506ZM13.9528 12.6943H13.5369V13.1089V13.5234V13.938V14.3526H13.9528H13.9531H14.369V13.938V13.5234V13.1089V12.6943H13.9531H13.9528ZM6.04544 13.5234H5.62948V13.938V14.3526H6.04544H6.04567H6.46162V13.938V13.5234H6.04567H6.04544ZM6.8778 13.5234H6.46185V13.938V14.3526H6.8778H6.87804H7.29376V14.7671V15.1817V15.5963V16.0109H7.70995V15.5963V15.1817V14.7671V14.3526V13.938V13.5234H7.29399H7.29376H6.87804H6.8778ZM7.71017 13.5235H8.12636V13.938V14.3526V14.3527V14.7671V15.1817V15.5963V16.0109H7.71017V15.5963V15.1817V14.7671V14.3527V14.3526V13.938V13.5235ZM9.37472 13.5234H8.95878V13.938V14.3526V14.7671V15.1817V15.5963V16.0109H9.37472H9.37495H9.79097V15.5963V15.1817V14.7671V14.3526V13.938V13.5234H9.37495H9.37472ZM10.2074 13.5234H9.79112V13.938V14.3526V14.7671V15.1817V15.5963V16.0109H10.2071H10.2074H10.6233V15.5963V15.1817H10.2074V14.7671V14.3526V13.938V13.5234ZM11.4558 13.5235H11.8717H11.872H12.288V13.938V14.3526V14.3527V14.7671V15.1817V15.5963H11.872V16.0109H11.4558V15.5963V15.1817V14.7671V14.3527V14.3526V13.938V13.5235ZM12.2882 13.5234H12.7045V13.938V14.3526H12.2882V13.938V13.5234ZM13.1205 13.5234H12.7045V13.938V14.3526H13.1205H13.1207H13.5367V13.938V13.5234H13.1207H13.1205ZM8.12652 15.1818H8.54245H8.54269H8.95862L8.95878 15.5963V16.0109H8.54277H8.54253H8.12652V15.5963V15.1818ZM10.6235 15.1818H11.0395H11.0397H11.4557V15.5963V16.0109H11.0397H11.0395H10.6235V15.5963V15.1818ZM8.95894 7.30486H9.79105V7.71942V8.54862V9.37773H8.95894V8.54862V7.71942V7.30486ZM9.79128 7.71942V7.30486H10.6235V7.71942V8.13399H9.79128V7.71942ZM10.6236 7.30487V7.71944V8.13407H11.0396V8.54862H10.6236V9.37773H11.4558V8.9631V7.71944V7.30487H10.6236ZM11.456 7.30489H11.8721V7.71946V8.54862V9.37773H11.456V8.54862V7.71946V7.30489ZM9.79128 9.37773V8.54862H10.6235V9.37773H9.79128ZM8.95894 10.6214V10.2068H9.79105V10.6214V11.8651V12.2797H8.95894V11.8651V10.6214ZM9.79128 10.2068V10.6214V11.036H10.6235V10.6214V10.2068H9.79128ZM10.6236 10.6215V10.2068H11.4558V10.6215V11.036H10.6236V10.6215ZM11.456 10.2069V10.6215V11.8651V12.2798H12.2881V11.8651V10.6215V10.2069H11.456ZM9.79128 11.8651V11.4506H10.6235V11.8651V12.2797H9.79128V11.8651ZM11.0399 11.4506H10.6236V11.8651V12.2798H11.4558V11.4506L11.0399 11.4506Z"
            fill="#2A3B92"
          />
        </g>
      </g>
    </g>
  </g>
  <defs>
    <clipPath id="clip0_8018_131135">
      <rect width="20" height="20" fill="white" />
    </clipPath>
  </defs>
</svg>
