<svg
  width="20"
  height="20"
  viewBox="0 0 20 20"
  fill="none"
  xmlns="http://www.w3.org/2000/svg"
>
  <g clip-path="url(#clip0_15162_21584)">
    <path
      d="M10 19.8C15.1624 19.8 19.8 15.1624 19.8 10C19.8 4.8376 15.1624 0.2 10 0.2C4.8376 0.2 0.2 4.8376 0.2 10C0.2 15.1624 4.8376 19.8 10 19.8Z"
      fill="url(#paint0_linear_15162_21584)"
    />
    <path
      d="M10 1.209C5.144975 1.209 1.209 5.144975 1.209 10C1.209 14.4275 4.4825 17.84125 8.74375 18.7C8.90875 18.725 9.07625 18.74375 9.2475 18.7575C9.4125 18.77125 9.58 18.78 9.75 18.785C9.83 18.7875 9.91 18.78875 10 18.78875C10.09 18.78875 10.17 18.7875 10.25 18.785C10.42 18.78 10.5875 18.77125 10.7525 18.7575C10.92375 18.74375 11.09125 18.725 11.25625 18.70125C15.5175 17.8425 18.79125 14.42875 18.79125 10C18.79125 5.144975 14.855 1.209 10 1.209Z"
      fill="url(#paint1_linear_15162_21584)"
    />
    <path
      d="M13.84125 10.10875L10 3.74625L6.15875 10.10875L10 12.37L13.84125 10.10875ZM6.15875 10.93625L10 16.34875L13.84125 10.93625L10 13.21L6.15875 10.93625Z"
      fill="white"
    />
  </g>
  <rect x="10.5" y="10.5" width="9" height="9" rx="2.5" fill="#FFEBD4" />
  <rect x="10.5" y="10.5" width="9" height="9" rx="2.5" stroke="white" />
  <path
    d="M15.5767 12.0009C15.5459 11.9954 15.5168 12.0157 15.5114 12.0472L15.139 14.1982H14.861L14.4886 12.0472C14.4832 12.0157 14.4541 11.9954 14.4233 12.0009C13.1008 12.2617 12.0872 13.4084 12.0036 14.8104C12.0036 14.8123 12 14.8715 12 14.901C12 14.9047 12 14.9084 12 14.9103C12 14.9214 12 14.9325 12 14.9436C12 14.9473 12 14.951 12 14.9565C12 14.9713 12 14.9843 12 14.9991C12 16.4861 13.0427 17.7235 14.4251 17.9972C14.4559 18.0028 14.485 17.9824 14.4905 17.951L14.8629 15.7999H15.1408L15.5114 17.9529C15.5168 17.9843 15.5459 18.0046 15.5767 17.9991C16.8992 17.7364 17.911 16.5897 17.9964 15.1877C17.9964 15.1859 18 15.1267 18 15.0971C18 15.0934 18 15.0897 18 15.0879C18 15.0768 18 15.0657 18 15.0546C18 15.0509 18 15.0472 18 15.0416C18 15.0268 18 15.0139 18 14.9991C18.0018 13.512 16.9591 12.2746 15.5767 12.0009Z"
    fill="#FF4600"
  />
  <defs>
    <linearGradient
      id="paint0_linear_15162_21584"
      x1="16.930"
      y1="3.070"
      x2="3.070"
      y2="16.930"
      gradientUnits="userSpaceOnUse"
    >
      <stop stop-color="#F2681D" />
      <stop offset="1" stop-color="#F89863" />
    </linearGradient>
    <linearGradient
      id="paint1_linear_15162_21584"
      x1="3.784"
      y1="16.216"
      x2="16.216"
      y2="3.784"
      gradientUnits="userSpaceOnUse"
    >
      <stop stop-color="#F2681D" />
      <stop offset="1" stop-color="#F89863" />
    </linearGradient>
    <clipPath id="clip0_15162_21584">
      <rect width="20" height="20" fill="white" />
    </clipPath>
  </defs>
</svg>
