<svg
  width="20"
  height="20"
  viewBox="0 0 20 20"
  fill="none"
  xmlns="http://www.w3.org/2000/svg"
>
  <rect width="20" height="20" rx="10" fill="#0EB4FB" fill-opacity="0.2" />
  <g clip-path="url(#clip0_13489_8381)">
    <mask
      id="mask0_13489_8381"
      style="mask-type: luminance"
      maskUnits="userSpaceOnUse"
      x="3"
      y="3"
      width="14"
      height="14"
    >
      <path d="M17 3H3V17H17V3Z" fill="white" />
    </mask>
    <g mask="url(#mask0_13489_8381)">
      <mask
        id="mask1_13489_8381"
        style="mask-type: luminance"
        maskUnits="userSpaceOnUse"
        x="3"
        y="3"
        width="14"
        height="14"
      >
        <path d="M17 3H3V17H17V3Z" fill="white" />
      </mask>
      <g mask="url(#mask1_13489_8381)">
        <path
          d="M5.91673 4.3418L16.7667 11.7502L14.0834 15.7168L3.2334 8.25015L5.91673 4.3418Z"
          fill="url(#paint0_linear_13489_8381)"
        />
        <path
          d="M16.7666 11.7502C15.8332 13.0919 12.6832 12.5669 9.70824 10.4669C6.67491 8.42519 5.04157 5.68354 5.91657 4.34187C6.84991 3.00021 9.99989 3.52521 12.9749 5.62521C16.0082 7.60854 17.6416 10.4085 16.7666 11.7502Z"
          fill="url(#paint1_linear_13489_8381)"
        />
        <path
          d="M14.0831 15.6581C13.1498 16.9998 9.99976 16.4748 7.02475 14.3748C4.04975 12.2748 2.35809 9.5915 3.29142 8.1915C4.22475 6.84981 7.37475 7.37481 10.3498 9.4748C13.3248 11.5748 14.9581 14.3165 14.0831 15.6581Z"
          fill="url(#paint2_linear_13489_8381)"
        />
        <path
          d="M16.7666 11.7498L14.0833 15.7164C13.1499 17.0581 9.99994 16.4748 7.02493 14.4331C6.4416 14.0248 5.9166 13.6164 5.3916 13.1498C5.79993 13.0914 6.32493 12.8581 6.84993 12.2748C7.78327 11.2831 8.24994 11.0498 8.65829 11.1081C9.06659 11.1081 9.53329 11.5164 10.2916 12.5081C11.0499 13.4998 12.0999 13.7914 12.7416 13.2664C12.7999 13.2081 12.8583 13.2081 12.9166 13.1498C13.4416 12.7414 13.6166 12.5664 14.6083 10.6998C14.8416 10.2331 15.6583 9.4748 16.7666 9.8248C17.0583 10.5831 17.0583 11.2248 16.7666 11.7498Z"
          fill="#0E0F23"
        />
        <path
          fill-rule="evenodd"
          clip-rule="evenodd"
          d="M16.3581 11.5169C15.5415 12.6836 12.6831 12.1002 9.94147 10.1752C7.14146 8.25024 5.50813 5.80026 6.32479 4.63359C7.14146 3.46693 9.99982 4.05026 12.7415 5.97526C15.4831 7.90026 17.1165 10.3502 16.3581 11.5169ZM13.7915 9.76694C13.3831 10.3502 11.9831 10.0586 10.5831 9.12524C9.24147 8.19194 8.42482 6.96693 8.83312 6.38359C9.24147 5.80026 10.6415 6.09193 12.0415 7.02526C13.3831 7.95859 14.1998 9.18359 13.7915 9.76694Z"
          fill="white"
        />
        <path
          d="M5.68304 5.68357C5.68304 5.62524 5.62471 5.56691 5.56638 5.62524C5.50804 5.68357 5.44971 5.68357 5.44971 5.74191C5.50804 5.91691 5.56638 6.03357 5.56638 6.15024C5.56638 6.20857 5.62471 6.26691 5.68304 6.20857C5.74138 6.20857 5.79971 6.15024 5.74138 6.09191C5.74138 5.97524 5.74138 5.85857 5.68304 5.68357Z"
          fill="white"
        />
        <path
          d="M5.9748 6.61668C5.9748 6.55834 5.91647 6.50001 5.85813 6.55834C5.7998 6.61668 5.7998 6.61668 5.7998 6.67501C6.44147 8.13335 7.78313 9.70835 9.53311 10.875C9.59146 10.9334 9.64981 10.875 9.70811 10.875C9.76646 10.8167 9.70811 10.7584 9.70811 10.7C7.8998 9.53335 6.61647 8.0167 5.9748 6.61668Z"
          fill="white"
        />
        <path
          d="M13.0334 12.333C12.975 12.333 12.9167 12.333 12.9167 12.3914C12.9167 12.4497 12.9167 12.508 12.975 12.508C13.15 12.5664 13.3834 12.6247 13.5584 12.683C13.6167 12.683 13.675 12.683 13.675 12.6247C13.675 12.5664 13.675 12.508 13.6167 12.508C13.4417 12.4497 13.2084 12.3914 13.0334 12.333Z"
          fill="white"
        />
        <path
          d="M14.0833 12.5669C14.0249 12.5669 13.9666 12.6252 13.9666 12.6835C13.9666 12.7419 14.0249 12.8002 14.0833 12.8002C14.5499 12.8585 15.0749 12.9169 15.4833 12.8585C15.5416 12.8585 15.5999 12.8002 15.5999 12.7419C15.5999 12.6835 15.5416 12.6252 15.4833 12.6252C15.0166 12.6835 14.5499 12.6252 14.0833 12.5669Z"
          fill="white"
        />
      </g>
    </g>
  </g>
  <rect x="10.5" y="10.5" width="9" height="9" rx="2.5" fill="#FFEBD4" />
  <rect x="10.5" y="10.5" width="9" height="9" rx="2.5" stroke="white" />
  <path
    d="M15.5767 12.0009C15.5459 11.9954 15.5168 12.0157 15.5114 12.0472L15.139 14.1982H14.861L14.4886 12.0472C14.4832 12.0157 14.4541 11.9954 14.4233 12.0009C13.1008 12.2617 12.0872 13.4084 12.0036 14.8104C12.0036 14.8123 12 14.8715 12 14.901C12 14.9047 12 14.9084 12 14.9103C12 14.9214 12 14.9325 12 14.9436C12 14.9473 12 14.951 12 14.9565C12 14.9713 12 14.9843 12 14.9991C12 16.4861 13.0427 17.7235 14.4251 17.9972C14.4559 18.0028 14.485 17.9824 14.4905 17.951L14.8629 15.7999H15.1408L15.5114 17.9529C15.5168 17.9843 15.5459 18.0046 15.5767 17.9991C16.8992 17.7364 17.911 16.5897 17.9964 15.1877C17.9964 15.1859 18 15.1267 18 15.0971C18 15.0934 18 15.0897 18 15.0879C18 15.0768 18 15.0657 18 15.0546C18 15.0509 18 15.0472 18 15.0416C18 15.0268 18 15.0139 18 14.9991C18.0018 13.512 16.9591 12.2746 15.5767 12.0009Z"
    fill="#FF4600"
  />
  <defs>
    <linearGradient
      id="paint0_linear_13489_8381"
      x1="8.04251"
      y1="3.28847"
      x2="10.1942"
      y2="10.6771"
      gradientUnits="userSpaceOnUse"
    >
      <stop stop-color="#03B8FF" />
      <stop offset="1" stop-color="#FA52A0" />
    </linearGradient>
    <linearGradient
      id="paint1_linear_13489_8381"
      x1="9.81429"
      y1="2.77248"
      x2="11.966"
      y2="10.1611"
      gradientUnits="userSpaceOnUse"
    >
      <stop stop-color="#03B8FF" />
      <stop offset="1" stop-color="#FA52A0" />
    </linearGradient>
    <linearGradient
      id="paint2_linear_13489_8381"
      x1="6.27575"
      y1="3.80254"
      x2="8.4275"
      y2="11.1912"
      gradientUnits="userSpaceOnUse"
    >
      <stop stop-color="#03B8FF" />
      <stop offset="1" stop-color="#FA52A0" />
    </linearGradient>
    <clipPath id="clip0_13489_8381">
      <rect width="14" height="14" fill="white" transform="translate(3 3)" />
    </clipPath>
  </defs>
</svg>
