<svg
  xmlns="http://www.w3.org/2000/svg"
  width="28"
  height="28"
  viewBox="0 0 28 28"
  fill="none"
>
  <g clip-path="url(#clip0_6883_9882)">
    <mask
      id="mask0_6883_9882"
      style="mask-type: luminance"
      maskUnits="userSpaceOnUse"
      x="0"
      y="0"
      width="28"
      height="28"
    >
      <path d="M28 0H0V28H28V0Z" fill="white" />
    </mask>
    <g mask="url(#mask0_6883_9882)">
      <path
        d="M5.83334 2.68359L27.5333 17.5003L22.1667 25.4336L0.466675 10.5003L5.83334 2.68359Z"
        fill="url(#paint0_linear_6883_9882)"
      />
      <path
        d="M27.5333 17.4999C25.6666 20.1833 19.3666 19.1333 13.4166 14.9333C7.34993 10.8499 4.08326 5.3666 5.83326 2.68326C7.69993 -6.97374e-05 13.9999 1.04993 19.9499 5.24993C26.0166 9.2166 29.2833 14.8166 27.5333 17.4999Z"
        fill="url(#paint1_linear_6883_9882)"
      />
      <path
        d="M22.1667 25.3168C20.3 28.0001 14 26.9501 8.04999 22.7501C2.09999 18.5501 -1.28334 13.1835 0.583322 10.3835C2.44999 7.70013 8.74999 8.75013 14.7 12.9501C20.65 17.1501 23.9167 22.6335 22.1667 25.3168Z"
        fill="url(#paint2_linear_6883_9882)"
      />
      <path
        d="M27.5333 17.5001L22.1667 25.4334C20.3 28.1168 14 26.9501 8.04999 22.8668C6.88333 22.0501 5.83333 21.2334 4.78333 20.3001C5.59999 20.1834 6.64999 19.7168 7.69999 18.5501C9.56666 16.5668 10.5 16.1001 11.3167 16.2168C12.1333 16.2168 13.0667 17.0334 14.5833 19.0168C16.1 21.0001 18.2 21.5834 19.4833 20.5334C19.6 20.4168 19.7167 20.4168 19.8333 20.3001C20.8833 19.4834 21.2333 19.1334 23.2167 15.4001C23.6833 14.4668 25.3167 12.9501 27.5333 13.6501C28.1167 15.1668 28.1167 16.4501 27.5333 17.5001Z"
        fill="#0E0F23"
      />
      <path
        fill-rule="evenodd"
        clip-rule="evenodd"
        d="M26.7166 17.0334C25.0833 19.3667 19.3666 18.2 13.8833 14.35C8.28328 10.5 5.01662 5.60003 6.64995 3.2667C8.28328 0.933367 14 2.10003 19.4833 5.95003C24.9666 9.80003 28.2333 14.7 26.7166 17.0334ZM21.5833 13.5334C20.7666 14.7 17.9666 14.1167 15.1666 12.25C12.4833 10.3834 10.85 7.93337 11.6666 6.7667C12.4833 5.60003 15.2833 6.18337 18.0833 8.05003C20.7666 9.9167 22.4 12.3667 21.5833 13.5334Z"
        fill="white"
      />
      <path
        d="M5.36657 5.36714C5.36657 5.25047 5.2499 5.13381 5.13324 5.25047C5.01657 5.36714 4.8999 5.36714 4.8999 5.48381C5.01657 5.83381 5.13324 6.06714 5.13324 6.30047C5.13324 6.41714 5.2499 6.53381 5.36657 6.41714C5.48324 6.41714 5.5999 6.30047 5.48324 6.18381C5.48324 5.95047 5.48324 5.71714 5.36657 5.36714Z"
        fill="white"
      />
      <path
        d="M5.94998 7.23335C5.94998 7.11668 5.83331 7.00002 5.71664 7.11668C5.59998 7.23335 5.59998 7.23335 5.59998 7.35002C6.88331 10.2667 9.56664 13.4167 13.0666 15.75C13.1833 15.8667 13.3 15.75 13.4166 15.75C13.5333 15.6334 13.4166 15.5167 13.4166 15.4C9.79998 13.0667 7.23331 10.0334 5.94998 7.23335Z"
        fill="white"
      />
      <path
        d="M20.0667 18.6665C19.95 18.6665 19.8334 18.6665 19.8334 18.7832C19.8334 18.8998 19.8334 19.0165 19.95 19.0165C20.3 19.1332 20.7667 19.2498 21.1167 19.3665C21.2334 19.3665 21.35 19.3665 21.35 19.2498C21.35 19.1332 21.35 19.0165 21.2334 19.0165C20.8834 18.8998 20.4167 18.7832 20.0667 18.6665Z"
        fill="white"
      />
      <path
        d="M22.1667 19.1338C22.05 19.1338 21.9333 19.2505 21.9333 19.3671C21.9333 19.4838 22.05 19.6005 22.1667 19.6005C23.1 19.7171 24.15 19.8338 24.9667 19.7171C25.0834 19.7171 25.2 19.6005 25.2 19.4838C25.2 19.3671 25.0834 19.2505 24.9667 19.2505C24.0334 19.3671 23.1 19.2505 22.1667 19.1338Z"
        fill="white"
      />
    </g>
  </g>
  <defs>
    <linearGradient
      id="paint0_linear_6883_9882"
      x1="10.0849"
      y1="0.576944"
      x2="14.3883"
      y2="15.3542"
      gradientUnits="userSpaceOnUse"
    >
      <stop stop-color="#03B8FF" />
      <stop offset="1" stop-color="#FA52A0" />
    </linearGradient>
    <linearGradient
      id="paint1_linear_6883_9882"
      x1="13.6287"
      y1="-0.455537"
      x2="17.9322"
      y2="14.3218"
      gradientUnits="userSpaceOnUse"
    >
      <stop stop-color="#03B8FF" />
      <stop offset="1" stop-color="#FA52A0" />
    </linearGradient>
    <linearGradient
      id="paint2_linear_6883_9882"
      x1="6.55199"
      y1="1.60558"
      x2="10.8555"
      y2="16.3829"
      gradientUnits="userSpaceOnUse"
    >
      <stop stop-color="#03B8FF" />
      <stop offset="1" stop-color="#FA52A0" />
    </linearGradient>
    <clipPath id="clip0_6883_9882">
      <rect width="28" height="28" fill="white" />
    </clipPath>
  </defs>
</svg>
