<svg
  width="20"
  height="20"
  viewBox="0 0 20 20"
  fill="none"
  xmlns="http://www.w3.org/2000/svg"
>
  <g transform="scale(0.625)">
    <rect width="32" height="32" rx="16" fill="white" />
    <path
      d="M26.6605 8L18.318 26.4079H12.8748L4.5 8H10.137L15.5802 22.017L21.0558 8H26.6605ZM15.5802 15.302C16.6125 15.302 17.4485 14.4579 17.4485 13.4157C17.4485 12.3734 16.6125 11.5293 15.5802 11.5293C14.548 11.5293 13.712 12.3734 13.712 13.4157C13.712 14.4579 14.548 15.302 15.5802 15.302ZM24.8245 18.9015C23.7923 18.9015 22.9563 19.7456 22.9563 20.7879C22.9563 21.8301 23.7923 22.6742 24.8245 22.6742C25.8568 22.6742 26.6928 21.8301 26.6928 20.7879C26.6928 19.7456 25.8568 18.9015 24.8245 18.9015Z"
      fill="#EE4C01"
    />
  </g>
  <rect x="10.5" y="10.5" width="9" height="9" rx="2.5" fill="#FFEBD4" />
  <rect x="10.5" y="10.5" width="9" height="9" rx="2.5" stroke="white" />
  <path
    d="M15.5767 12.0009C15.5459 11.9954 15.5168 12.0157 15.5114 12.0472L15.139 14.1982H14.861L14.4886 12.0472C14.4832 12.0157 14.4541 11.9954 14.4233 12.0009C13.1008 12.2617 12.0872 13.4084 12.0036 14.8104C12.0036 14.8123 12 14.8715 12 14.901C12 14.9047 12 14.9084 12 14.9103C12 14.9214 12 14.9325 12 14.9436C12 14.9473 12 14.951 12 14.9565C12 14.9713 12 14.9843 12 14.9991C12 16.4861 13.0427 17.7235 14.4251 17.9972C14.4559 18.0028 14.485 17.9824 14.4905 17.951L14.8629 15.7999H15.1408L15.5114 17.9529C15.5168 17.9843 15.5459 18.0046 15.5767 17.9991C16.8992 17.7364 17.911 16.5897 17.9964 15.1877C17.9964 15.1859 18 15.1267 18 15.0971C18 15.0934 18 15.0897 18 15.0879C18 15.0768 18 15.0657 18 15.0546C18 15.0509 18 15.0472 18 15.0416C18 15.0268 18 15.0139 18 14.9991C18.0018 13.512 16.9591 12.2746 15.5767 12.0009Z"
    fill="#FF4600"
  />
</svg>
