<svg
  width="32"
  height="32"
  viewBox="0 0 32 32"
  fill="none"
  xmlns="http://www.w3.org/2000/svg"
>
  <rect width="32" height="32" rx="16" fill="#E8EDFF" />
  <path
    d="M26.4694 8L18.5753 26H13.4247L5.5 8H10.834L15.9847 21.7063L21.166 8H26.4694ZM15.9847 15.1402C16.9615 15.1402 17.7525 14.3148 17.7525 13.2956C17.7525 12.2765 16.9615 11.4511 15.9847 11.4511C15.0079 11.4511 14.2169 12.2765 14.2169 13.2956C14.2169 14.3148 15.0079 15.1402 15.9847 15.1402ZM24.7322 18.6599C23.7554 18.6599 22.9643 19.4853 22.9643 20.5045C22.9643 21.5236 23.7554 22.349 24.7322 22.349C25.7089 22.349 26.5 21.5236 26.5 20.5045C26.5 19.4853 25.7089 18.6599 24.7322 18.6599Z"
    fill="#00074F"
  />
  <g transform="scale(1.6)">
    <rect x="10.5" y="10.5" width="9" height="9" rx="2.5" fill="#FFEBD4" />
    <rect x="10.5" y="10.5" width="9" height="9" rx="2.5" stroke="white" />
    <path
      d="M15.5767 12.0009C15.5459 11.9954 15.5168 12.0157 15.5114 12.0472L15.139 14.1982H14.861L14.4886 12.0472C14.4832 12.0157 14.4541 11.9954 14.4233 12.0009C13.1008 12.2617 12.0872 13.4084 12.0036 14.8104C12.0036 14.8123 12 14.8715 12 14.901C12 14.9047 12 14.9084 12 14.9103C12 14.9214 12 14.9325 12 14.9436C12 14.9473 12 14.951 12 14.9565C12 14.9713 12 14.9843 12 14.9991C12 16.4861 13.0427 17.7235 14.4251 17.9972C14.4559 18.0028 14.485 17.9824 14.4905 17.951L14.8629 15.7999H15.1408L15.5114 17.9529C15.5168 17.9843 15.5459 18.0046 15.5767 17.9991C16.8992 17.7364 17.911 16.5897 17.9964 15.1877C17.9964 15.1859 18 15.1267 18 15.0971C18 15.0934 18 15.0897 18 15.0879C18 15.0768 18 15.0657 18 15.0546C18 15.0509 18 15.0472 18 15.0416C18 15.0268 18 15.0139 18 14.9991C18.0018 13.512 16.9591 12.2746 15.5767 12.0009Z"
      fill="#FF4600"
    />
  </g>
</svg>
