<svg
  width="20"
  height="20"
  viewBox="0 0 20 20"
  fill="none"
  xmlns="http://www.w3.org/2000/svg"
>
  <g clip-path="url(#clip0_13489_8405)">
    <g clip-path="url(#clip1_13489_8405)">
      <mask
        id="mask0_13489_8405"
        style="mask-type: luminance"
        maskUnits="userSpaceOnUse"
        x="0"
        y="0"
        width="20"
        height="20"
      >
        <path d="M20 0H0V20H20V0Z" fill="white" />
      </mask>
      <g mask="url(#mask0_13489_8405)">
        <path
          d="M10 20C15.523 20 20 15.523 20 10C20 4.477 15.523 0 10 0C4.477 0 0 4.477 0 10C0 15.523 4.477 20 10 20Z"
          fill="#1D2229"
        />
        <path
          d="M8.06016 9.42285H6.41528V11.0678H8.06016V9.42285Z"
          fill="white"
        />
        <path
          d="M6.41489 7.77832H4.77002V9.4232H6.41489V7.77832Z"
          fill="white"
        />
        <path
          d="M4.76988 9.42285H3.125V11.0678H4.76988V9.42285Z"
          fill="white"
        />
        <path
          d="M6.41489 11.0684H4.77002V12.7132H6.41489V11.0684Z"
          fill="white"
        />
        <path
          d="M15.7652 8.13231C15.6493 6.92256 14.6052 6.5165 13.2864 6.4005V5.62561H12.2653V6.35631C11.997 6.35631 11.7227 6.36144 11.4498 6.36656V5.625H10.4294V6.39962C10.2083 6.40381 8.85016 6.40262 8.85016 6.40262L8.84709 7.30287L9.69928 7.30775V13.208H8.84747L8.83984 14.0956C9.08728 14.0956 10.1883 14.1004 10.4269 14.1019V14.8669H11.4475V14.1201C11.7272 14.1262 11.9985 14.1286 12.2632 14.1283V14.8671H13.2846V14.1056C15.0018 14.0078 16.2043 13.5756 16.3536 11.9635C16.4747 10.665 15.8643 10.086 14.8895 9.8505C15.4818 9.54763 15.8515 9.01769 15.7652 8.13231ZM14.3344 11.7609C14.3344 13.0294 12.1629 12.8844 11.4701 12.8846V10.6359C12.1627 10.6359 14.3341 10.4382 14.3344 11.7609ZM13.8605 8.588C13.8605 9.74206 12.0485 9.60669 11.4716 9.60669V7.56694C12.0493 7.56725 13.8612 7.38437 13.8605 8.588Z"
          fill="white"
        />
      </g>
    </g>
  </g>
  <rect x="10.5" y="10.5" width="9" height="9" rx="2.5" fill="#FFEBD4" />
  <rect x="10.5" y="10.5" width="9" height="9" rx="2.5" stroke="white" />
  <path
    d="M15.5767 12.0009C15.5459 11.9954 15.5168 12.0157 15.5114 12.0472L15.139 14.1982H14.861L14.4886 12.0472C14.4832 12.0157 14.4541 11.9954 14.4233 12.0009C13.1008 12.2617 12.0872 13.4084 12.0036 14.8104C12.0036 14.8123 12 14.8715 12 14.901C12 14.9047 12 14.9084 12 14.9103C12 14.9214 12 14.9325 12 14.9436C12 14.9473 12 14.951 12 14.9565C12 14.9713 12 14.9843 12 14.9991C12 16.4861 13.0427 17.7235 14.4251 17.9972C14.4559 18.0028 14.485 17.9824 14.4905 17.951L14.8629 15.7999H15.1408L15.5114 17.9529C15.5168 17.9843 15.5459 18.0046 15.5767 17.9991C16.8992 17.7364 17.911 16.5897 17.9964 15.1877C17.9964 15.1859 18 15.1267 18 15.0971C18 15.0934 18 15.0897 18 15.0879C18 15.0768 18 15.0657 18 15.0546C18 15.0509 18 15.0472 18 15.0416C18 15.0268 18 15.0139 18 14.9991C18.0018 13.512 16.9591 12.2746 15.5767 12.0009Z"
    fill="#FF4600"
  />
  <defs>
    <clipPath id="clip0_13489_8405">
      <rect width="20" height="20" fill="white" />
    </clipPath>
    <clipPath id="clip1_13489_8405">
      <rect width="20" height="20" fill="white" />
    </clipPath>
  </defs>
</svg>
