<svg
  width="20"
  height="20"
  viewBox="0 0 20 20"
  fill="none"
  xmlns="http://www.w3.org/2000/svg"
>
  <g clip-path="url(#clip0_13489_8466)">
    <g clip-path="url(#clip1_13489_8466)">
      <mask
        id="mask0_13489_8466"
        style="mask-type: luminance"
        maskUnits="userSpaceOnUse"
        x="0"
        y="0"
        width="20"
        height="20"
      >
        <path d="M20 0H0V20H20V0Z" fill="white" />
      </mask>
      <g mask="url(#mask0_13489_8466)">
        <path
          d="M19.6625 12.4212C18.3317 17.759 12.9254 21.0075 7.58695 19.6764C2.2507 18.3456 -0.997824 12.939 0.333591 7.60151C1.66376 2.26308 7.07008 -0.985752 12.407 0.345041C17.7451 1.67584 20.9933 7.08308 19.6625 12.4212Z"
          fill="url(#paint0_linear_13489_8466)"
        />
        <path
          d="M14.3902 8.59205C14.5885 7.26624 13.579 6.55352 12.1988 6.07806L12.6465 4.28207L11.5533 4.00963L11.1174 5.75828C10.83 5.68666 10.5348 5.6191 10.2415 5.55215L10.6805 3.79198L9.58792 3.51953L9.13985 5.31489C8.90198 5.26071 8.66844 5.20716 8.44176 5.1508L8.44302 5.14519L6.93537 4.76875L6.64454 5.93638C6.64454 5.93638 7.45566 6.12227 7.43853 6.13379C7.8813 6.24432 7.96132 6.53733 7.94793 6.76961L7.43791 8.81562C7.46843 8.8234 7.50796 8.83462 7.55156 8.85205C7.51513 8.84302 7.47621 8.83306 7.43604 8.82341L6.72114 11.6896C6.66696 11.8241 6.52965 12.0259 6.22015 11.9492C6.23104 11.9651 5.42552 11.7509 5.42552 11.7509L4.88281 13.0022L6.30546 13.3569C6.57012 13.4233 6.82949 13.4928 7.08481 13.5581L6.63239 15.3747L7.72437 15.6471L8.17243 13.8498C8.47072 13.9308 8.76029 14.0055 9.04364 14.0759L8.59714 15.8647L9.69036 16.1372L10.1428 14.3241C12.0069 14.6768 13.4087 14.5346 13.9988 12.8485C14.4743 11.4909 13.9751 10.7078 12.9943 10.1972C13.7086 10.0324 14.2466 9.56259 14.3902 8.59205ZM11.8923 12.0947C11.5545 13.4522 9.26877 12.7183 8.5277 12.5343L9.12802 10.1277C9.86908 10.3127 12.2455 10.6789 11.8923 12.0947ZM12.2305 8.57244C11.9223 9.80733 10.0198 9.17992 9.40265 9.02611L9.94693 6.84341C10.5641 6.99721 12.5516 7.2843 12.2305 8.57244Z"
          fill="white"
        />
      </g>
    </g>
  </g>
  <rect x="10.5" y="10.5" width="9" height="9" rx="2.5" fill="#FFEBD4" />
  <rect x="10.5" y="10.5" width="9" height="9" rx="2.5" stroke="white" />
  <path
    d="M15.5767 12.0009C15.5459 11.9954 15.5168 12.0157 15.5114 12.0472L15.139 14.1982H14.861L14.4886 12.0472C14.4832 12.0157 14.4541 11.9954 14.4233 12.0009C13.1008 12.2617 12.0872 13.4084 12.0036 14.8104C12.0036 14.8123 12 14.8715 12 14.901C12 14.9047 12 14.9084 12 14.9103C12 14.9214 12 14.9325 12 14.9436C12 14.9473 12 14.951 12 14.9565C12 14.9713 12 14.9843 12 14.9991C12 16.4861 13.0427 17.7235 14.4251 17.9972C14.4559 18.0028 14.485 17.9824 14.4905 17.951L14.8629 15.7999H15.1408L15.5114 17.9529C15.5168 17.9843 15.5459 18.0046 15.5767 17.9991C16.8992 17.7364 17.911 16.5897 17.9964 15.1877C17.9964 15.1859 18 15.1267 18 15.0971C18 15.0934 18 15.0897 18 15.0879C18 15.0768 18 15.0657 18 15.0546C18 15.0509 18 15.0472 18 15.0416C18 15.0268 18 15.0139 18 14.9991C18.0018 13.512 16.9591 12.2746 15.5767 12.0009Z"
    fill="#FF4600"
  />
  <defs>
    <linearGradient
      id="paint0_linear_13489_8466"
      x1="-1.86078"
      y1="2.12836"
      x2="19.9607"
      y2="13.6304"
      gradientUnits="userSpaceOnUse"
    >
      <stop stop-color="#C26BFF" />
      <stop offset="1" stop-color="#9600FF" />
    </linearGradient>
    <clipPath id="clip0_13489_8466">
      <rect width="20" height="20" fill="white" />
    </clipPath>
    <clipPath id="clip1_13489_8466">
      <rect width="20" height="20" fill="white" />
    </clipPath>
  </defs>
</svg>
