<svg
  width="20"
  height="20"
  viewBox="0 0 20 20"
  fill="none"
  xmlns="http://www.w3.org/2000/svg"
>
  <g clip-path="url(#clip0_13489_8501)">
    <g clip-path="url(#clip1_13489_8501)">
      <path
        d="M20 10C20 4.47715 15.5228 0 10 0C4.47715 0 0 4.47715 0 10C0 15.5228 4.47715 20 10 20C15.5228 20 20 15.5228 20 10Z"
        fill="url(#paint0_linear_13489_8501)"
      />
      <path
        d="M19.5312 10C19.5312 4.73604 15.264 0.46875 10 0.46875C4.73604 0.46875 0.46875 4.73604 0.46875 10C0.46875 15.264 4.73604 19.5312 10 19.5312C15.264 19.5312 19.5312 15.264 19.5312 10Z"
        stroke="url(#paint1_linear_13489_8501)"
        stroke-opacity="0.48"
        stroke-width="0.9375"
      />
      <mask
        id="mask0_13489_8501"
        style="mask-type: luminance"
        maskUnits="userSpaceOnUse"
        x="4"
        y="3"
        width="12"
        height="14"
      >
        <path d="M15.8958 3.75H4.375V16.25H15.8958V3.75Z" fill="white" />
      </mask>
      <g mask="url(#mask0_13489_8501)">
        <path
          d="M13.7399 5.64367C13.7567 5.34908 13.7967 5.15478 13.8774 4.97733C13.9092 4.9071 13.9392 4.84961 13.9437 4.84961C13.9484 4.84961 13.9345 4.90145 13.9129 4.96481C13.8543 5.13702 13.8447 5.37257 13.8851 5.64661C13.9363 5.99432 13.9654 6.0445 14.3343 6.42008C14.5072 6.59627 14.7085 6.81845 14.7814 6.91389L14.914 7.08733L14.7814 6.96339C14.6192 6.81177 14.2462 6.51614 14.1638 6.47389C14.1085 6.44552 14.1004 6.44602 14.0663 6.47983C14.0349 6.51095 14.0282 6.55777 14.0239 6.77902C14.0171 7.12383 13.9699 7.34514 13.8561 7.56645C13.7945 7.68614 13.7848 7.66058 13.8405 7.52545C13.8822 7.42458 13.8864 7.38027 13.886 7.04645C13.8854 6.37577 13.8055 6.21454 13.3369 5.93833C13.2182 5.86835 13.0226 5.76744 12.9022 5.71407C12.7819 5.66068 12.6863 5.6142 12.6898 5.61072C12.703 5.59756 13.16 5.73048 13.344 5.80098C13.6176 5.90585 13.6627 5.91945 13.696 5.9068C13.7182 5.89832 13.729 5.83368 13.7399 5.64367Z"
          fill="#F50DB4"
        />
        <path
          d="M7.959 4.66862C7.79668 4.64358 7.78981 4.64064 7.86618 4.62897C8.01262 4.60658 8.35825 4.63709 8.59643 4.69342C9.15243 4.82488 9.65837 5.16163 10.1985 5.75971L10.342 5.91859L10.5472 5.88577C11.4119 5.74756 12.2917 5.85741 13.0274 6.19546C13.2299 6.28844 13.549 6.47362 13.5889 6.52119C13.6016 6.53631 13.6249 6.63394 13.6407 6.73806C13.6954 7.09837 13.668 7.37456 13.5572 7.58081C13.4969 7.69312 13.4936 7.72869 13.5341 7.82475C13.5664 7.90137 13.6566 7.95812 13.746 7.958C13.9288 7.95775 14.1256 7.66381 14.2168 7.25475L14.2531 7.09225L14.3248 7.17312C14.7184 7.61662 15.0275 8.2215 15.0806 8.652L15.0944 8.76425L15.0283 8.66219C14.9144 8.48662 14.8001 8.36706 14.6536 8.27069C14.3895 8.09687 14.1102 8.03769 13.3707 7.999C12.7029 7.96394 12.3249 7.90719 11.9501 7.78569C11.3124 7.57887 10.9909 7.3035 10.2334 6.315C9.89693 5.87597 9.689 5.63306 9.48212 5.43744C9.01206 4.99295 8.55018 4.75984 7.959 4.66862Z"
          fill="#F50DB4"
        />
        <path
          d="M8.27404 6.79475C7.94454 6.34357 7.74066 5.65177 7.78479 5.13464L7.79841 4.97461L7.87347 4.98822C8.01429 5.01378 8.25716 5.10368 8.37085 5.17238C8.68291 5.36088 8.81804 5.60905 8.95547 6.24633C8.99579 6.433 9.0486 6.64425 9.07291 6.71575C9.11204 6.83088 9.25985 7.09975 9.3801 7.27438C9.46666 7.40013 9.40916 7.45969 9.21779 7.4425C8.92547 7.41632 8.52947 7.1445 8.27404 6.79475Z"
          fill="#F50DB4"
        />
        <path
          d="M13.3396 10.1526C11.7997 9.53602 11.2573 9.00077 11.2573 8.09764C11.2573 7.96471 11.2619 7.85596 11.2676 7.85596C11.2731 7.85596 11.3328 7.89983 11.3999 7.95346C11.7122 8.20252 12.0619 8.30896 13.0299 8.44939C13.5996 8.53208 13.9201 8.59883 14.2158 8.69633C15.1557 9.00639 15.7371 9.63552 15.8758 10.4925C15.9161 10.7415 15.8925 11.2083 15.8272 11.4545C15.7756 11.6488 15.6182 11.9992 15.5764 12.0126C15.5649 12.0164 15.5536 11.9723 15.5506 11.9122C15.5348 11.5905 15.3713 11.2772 15.0967 11.0425C14.7845 10.7757 14.3651 10.5633 13.3396 10.1526Z"
          fill="#F50DB4"
        />
        <path
          d="M12.2584 10.4083C12.2391 10.2941 12.2057 10.1483 12.184 10.0842L12.1447 9.96777L12.2177 10.0493C12.3187 10.162 12.3985 10.3063 12.4662 10.4985C12.5178 10.6451 12.5236 10.6887 12.5232 10.927C12.5228 11.161 12.5163 11.21 12.4687 11.3421C12.3935 11.5502 12.3002 11.6978 12.1437 11.8562C11.8624 12.141 11.5008 12.2986 10.9789 12.364C10.8882 12.3753 10.6238 12.3945 10.3913 12.4065C9.80553 12.4368 9.41997 12.4995 9.07353 12.6204C9.02372 12.6378 8.97928 12.6484 8.97472 12.6439C8.96072 12.63 9.19659 12.4902 9.3914 12.3968C9.66615 12.2652 9.93959 12.1934 10.5523 12.0919C10.855 12.0418 11.1675 11.981 11.2469 11.9568C11.9964 11.7282 12.3817 11.1384 12.2584 10.4083Z"
          fill="#F50DB4"
        />
        <path
          d="M12.9644 11.6559C12.7598 11.2184 12.7128 10.7961 12.8249 10.4022C12.8369 10.3601 12.8562 10.3257 12.8678 10.3257C12.8794 10.3257 12.9277 10.3516 12.9751 10.3834C13.0693 10.4465 13.2585 10.5528 13.7622 10.826C14.3908 11.1668 14.7493 11.4308 14.993 11.7324C15.2064 11.9965 15.3385 12.2972 15.4021 12.6641C15.4381 12.8718 15.417 13.3717 15.3634 13.5809C15.1944 14.2406 14.8016 14.7588 14.2413 15.0612C14.1592 15.1054 14.0855 15.1418 14.0775 15.142C14.0696 15.1422 14.0995 15.0665 14.144 14.9739C14.3325 14.5821 14.354 14.2009 14.2115 13.7766C14.1242 13.5168 13.9463 13.1999 13.5872 12.6641C13.1695 12.0413 13.0672 11.8756 12.9644 11.6559Z"
          fill="#F50DB4"
        />
        <path
          d="M7.18038 14.0158C7.75182 13.536 8.46282 13.195 9.11044 13.0904C9.38957 13.0453 9.85457 13.0632 10.113 13.129C10.5273 13.2345 10.8979 13.4706 11.0907 13.752C11.2791 14.0271 11.3599 14.2668 11.444 14.8C11.4773 15.0103 11.5133 15.2216 11.5243 15.2695C11.5874 15.5458 11.7104 15.7667 11.8628 15.8776C12.1048 16.0538 12.5215 16.0648 12.9314 15.9057C13.0011 15.8787 13.0614 15.8601 13.0657 15.8643C13.0806 15.879 12.8741 16.0164 12.7285 16.0888C12.5326 16.1861 12.3768 16.2237 12.1697 16.2237C11.7942 16.2237 11.4825 16.0338 11.2224 15.6464C11.1712 15.5702 11.0561 15.3418 10.9667 15.139C10.6921 14.516 10.5565 14.3263 10.2376 14.1185C9.96013 13.9378 9.60225 13.9055 9.333 14.0368C8.97938 14.2092 8.88069 14.6587 9.13394 14.9435C9.23463 15.0568 9.42238 15.1545 9.57588 15.1734C9.86307 15.2089 10.1099 14.9916 10.1099 14.7033C10.1099 14.516 10.0375 14.4091 9.85532 14.3274C9.60657 14.2157 9.33907 14.3463 9.34038 14.5787C9.34094 14.6778 9.38432 14.7401 9.48425 14.785C9.54832 14.8139 9.54982 14.8162 9.49757 14.8054C9.26925 14.7583 9.21582 14.4846 9.39938 14.3029C9.61969 14.0847 10.0754 14.181 10.2319 14.4787C10.2976 14.6038 10.3053 14.8529 10.2479 15.0033C10.1196 15.34 9.74563 15.517 9.36625 15.4206C9.10788 15.3551 9.00269 15.284 8.69125 14.965C8.15007 14.4105 7.93994 14.3031 7.15975 14.1819L7.01025 14.1587L7.18038 14.0158Z"
          fill="#F50DB4"
        />
        <path
          fill-rule="evenodd"
          clip-rule="evenodd"
          d="M4.64118 4.0919C6.4485 6.27363 7.69338 7.17375 7.83169 7.36394C7.94588 7.52094 7.90294 7.66213 7.70725 7.77275C7.59844 7.83425 7.37469 7.89657 7.26269 7.89657C7.136 7.89657 7.0925 7.848 7.0925 7.848C7.01906 7.77869 6.97769 7.79082 6.6005 7.12488C6.07678 6.31669 5.63852 5.64622 5.62656 5.635C5.59891 5.60904 5.59939 5.60992 6.54706 7.29638C6.70019 7.64788 6.57756 7.77694 6.57756 7.827C6.57756 7.92882 6.54963 7.98238 6.42331 8.1225C6.21271 8.35613 6.11858 8.61863 6.05063 9.162C5.97445 9.77107 5.76024 10.2013 5.16662 10.9376C4.81913 11.3686 4.76227 11.4476 4.67459 11.6213C4.56415 11.8401 4.53378 11.9626 4.52148 12.2389C4.50846 12.531 4.5338 12.7197 4.62353 12.9989C4.70207 13.2434 4.78406 13.4049 4.99367 13.7278C5.17456 14.0064 5.27871 14.2134 5.27871 14.2944C5.27871 14.3589 5.29108 14.359 5.57138 14.2961C6.24217 14.1454 6.78688 13.8804 7.09319 13.5558C7.28275 13.3547 7.32725 13.2438 7.32875 12.9683C7.32969 12.7881 7.32331 12.7504 7.27431 12.6468C7.19463 12.4781 7.04956 12.3379 6.72975 12.1204C6.31075 11.8355 6.13175 11.6062 6.08231 11.2908C6.04176 11.0319 6.08881 10.8493 6.32063 10.3661C6.56056 9.86594 6.62 9.65282 6.66025 9.14869C6.68619 8.823 6.72219 8.6945 6.81625 8.59138C6.91444 8.48388 7.00275 8.4475 7.24563 8.4145C7.64156 8.36069 7.89369 8.25875 8.10088 8.06888C8.28069 7.90413 8.35588 7.74532 8.36744 7.50632L8.37619 7.32519L8.27575 7.20869C7.91194 6.78682 4.39753 3.76025 4.37514 3.76025C4.37036 3.76025 4.49008 3.90951 4.64118 4.0919ZM5.48294 12.5694C5.56519 12.4245 5.52149 12.2383 5.38389 12.1473C5.25389 12.0613 5.05193 12.1018 5.05193 12.2138C5.05193 12.248 5.07094 12.2729 5.11378 12.2948C5.18592 12.3318 5.19115 12.3733 5.13439 12.4581C5.07691 12.544 5.08156 12.6196 5.14749 12.6709C5.25374 12.7536 5.40416 12.7081 5.48294 12.5694Z"
          fill="#F50DB4"
        />
        <path
          fill-rule="evenodd"
          clip-rule="evenodd"
          d="M8.62611 8.50944C8.44023 8.56625 8.25954 8.76219 8.20361 8.96763C8.16954 9.09294 8.18886 9.31282 8.23998 9.38069C8.32254 9.49038 8.40236 9.51925 8.61861 9.51775C9.04192 9.51482 9.40986 9.33425 9.45267 9.1085C9.48773 8.9235 9.32611 8.66707 9.10348 8.5545C8.98861 8.49644 8.74429 8.47338 8.62611 8.50944ZM9.12098 8.89432C9.18623 8.80207 9.15767 8.70238 9.04667 8.63494C8.83523 8.5065 8.51554 8.61275 8.51554 8.81144C8.51554 8.91032 8.68223 9.01819 8.83504 9.01819C8.93679 9.01819 9.07598 8.95788 9.12098 8.89432Z"
          fill="#F50DB4"
        />
      </g>
    </g>
  </g>
  <rect x="10.5" y="10.5" width="9" height="9" rx="2.5" fill="#FFEBD4" />
  <rect x="10.5" y="10.5" width="9" height="9" rx="2.5" stroke="white" />
  <path
    d="M15.5767 12.0009C15.5459 11.9954 15.5168 12.0157 15.5114 12.0472L15.139 14.1982H14.861L14.4886 12.0472C14.4832 12.0157 14.4541 11.9954 14.4233 12.0009C13.1008 12.2617 12.0872 13.4084 12.0036 14.8104C12.0036 14.8123 12 14.8715 12 14.901C12 14.9047 12 14.9084 12 14.9103C12 14.9214 12 14.9325 12 14.9436C12 14.9473 12 14.951 12 14.9565C12 14.9713 12 14.9843 12 14.9991C12 16.4861 13.0427 17.7235 14.4251 17.9972C14.4559 18.0028 14.485 17.9824 14.4905 17.951L14.8629 15.7999H15.1408L15.5114 17.9529C15.5168 17.9843 15.5459 18.0046 15.5767 17.9991C16.8992 17.7364 17.911 16.5897 17.9964 15.1877C17.9964 15.1859 18 15.1267 18 15.0971C18 15.0934 18 15.0897 18 15.0879C18 15.0768 18 15.0657 18 15.0546C18 15.0509 18 15.0472 18 15.0416C18 15.0268 18 15.0139 18 14.9991C18.0018 13.512 16.9591 12.2746 15.5767 12.0009Z"
    fill="#FF4600"
  />
  <defs>
    <linearGradient
      id="paint0_linear_13489_8501"
      x1="0"
      y1="0"
      x2="20"
      y2="20"
      gradientUnits="userSpaceOnUse"
    >
      <stop stop-color="#F84FC8" stop-opacity="0.08" />
      <stop offset="1" stop-color="#F50DB4" stop-opacity="0.24" />
    </linearGradient>
    <linearGradient
      id="paint1_linear_13489_8501"
      x1="0"
      y1="0"
      x2="20"
      y2="20"
      gradientUnits="userSpaceOnUse"
    >
      <stop stop-color="#F84FC8" stop-opacity="0.08" />
      <stop offset="1" stop-color="#F50DB4" stop-opacity="0.24" />
    </linearGradient>
    <clipPath id="clip0_13489_8501">
      <rect width="20" height="20" fill="white" />
    </clipPath>
    <clipPath id="clip1_13489_8501">
      <rect width="20" height="20" fill="white" />
    </clipPath>
  </defs>
</svg>
