<svg
  width="32"
  height="32"
  viewBox="0 0 32 32"
  fill="none"
  xmlns="http://www.w3.org/2000/svg"
>
  <rect width="32" height="32" rx="16" fill="url(#paint0_linear_6925_10102)" />
  <rect
    x="0.75"
    y="0.75"
    width="30.5"
    height="30.5"
    rx="15.25"
    stroke="url(#paint1_linear_6925_10102)"
    stroke-opacity="0.48"
    stroke-width="1.5"
  />
  <g clip-path="url(#clip0_6925_10102)">
    <path
      d="M21.9835 9.03074C22.0104 8.55941 22.0745 8.24852 22.2035 7.96461C22.2545 7.85223 22.3024 7.76025 22.3097 7.76025C22.3171 7.76025 22.2949 7.8432 22.2604 7.94457C22.1666 8.22011 22.1513 8.59698 22.2159 9.03545C22.2978 9.59179 22.3444 9.67207 22.9346 10.273C23.2113 10.5549 23.5333 10.9104 23.65 11.0631L23.8622 11.3406L23.65 11.1423C23.3905 10.8997 22.7936 10.4267 22.6618 10.3591C22.5734 10.3137 22.5603 10.3145 22.5058 10.3686C22.4555 10.4184 22.4449 10.4933 22.4379 10.8473C22.4271 11.399 22.3516 11.7531 22.1695 12.1072C22.071 12.2987 22.0554 12.2578 22.1446 12.0416C22.2112 11.8802 22.2179 11.8093 22.2174 11.2752C22.2164 10.2021 22.0886 9.94414 21.3388 9.5022C21.1489 9.39024 20.8359 9.22878 20.6433 9.14338C20.4507 9.05797 20.2978 8.98359 20.3034 8.97803C20.3246 8.95697 21.0558 9.16964 21.3501 9.28244C21.7879 9.45024 21.8601 9.47199 21.9133 9.45175C21.9489 9.43818 21.9662 9.33476 21.9835 9.03074Z"
      fill="#F50DB4"
    />
    <path
      d="M12.7341 7.4698C12.4744 7.42973 12.4634 7.42503 12.5856 7.40635C12.8199 7.37053 13.3729 7.41935 13.754 7.50947C14.6436 7.71981 15.4531 8.25861 16.3173 9.21553L16.5469 9.46975L16.8753 9.41723C18.2588 9.1961 19.6664 9.37185 20.8436 9.91274C21.1675 10.0615 21.6781 10.3578 21.7419 10.4339C21.7622 10.4581 21.7995 10.6143 21.8248 10.7809C21.9123 11.3574 21.8685 11.7993 21.6912 12.1293C21.5947 12.309 21.5894 12.3659 21.6542 12.5196C21.706 12.6422 21.8503 12.733 21.9933 12.7328C22.2858 12.7324 22.6007 12.2621 22.7466 11.6076L22.8046 11.3476L22.9194 11.477C23.5491 12.1866 24.0437 13.1544 24.1287 13.8432L24.1508 14.0228L24.045 13.8595C23.8628 13.5786 23.6798 13.3873 23.4454 13.2331C23.0229 12.955 22.5761 12.8603 21.3929 12.7984C20.3243 12.7423 19.7195 12.6515 19.1199 12.4571C18.0995 12.1262 17.5852 11.6856 16.3732 10.104C15.8348 9.40156 15.5021 9.0129 15.1711 8.69991C14.419 7.98872 13.68 7.61574 12.7341 7.4698Z"
      fill="#F50DB4"
    />
    <path
      d="M13.2385 10.8717C12.7113 10.1498 12.3851 9.04292 12.4557 8.21552L12.4775 7.95947L12.5976 7.98125C12.8229 8.02214 13.2115 8.16598 13.3934 8.2759C13.8927 8.5775 14.1089 8.97458 14.3288 9.99423C14.3933 10.2929 14.4778 10.6309 14.5167 10.7453C14.5793 10.9295 14.8158 11.3597 15.0082 11.6391C15.1467 11.8403 15.0547 11.9356 14.7485 11.9081C14.2808 11.8662 13.6472 11.4313 13.2385 10.8717Z"
      fill="#F50DB4"
    />
    <path
      d="M21.3435 16.2445C18.8796 15.2579 18.0118 14.4015 18.0118 12.9565C18.0118 12.7438 18.0192 12.5698 18.0282 12.5698C18.0371 12.5698 18.1325 12.64 18.24 12.7258C18.7396 13.1243 19.2991 13.2946 20.8479 13.5193C21.7594 13.6516 22.2722 13.7584 22.7453 13.9144C24.2492 14.4105 25.1795 15.4171 25.4014 16.7882C25.4659 17.1866 25.4281 17.9336 25.3236 18.3274C25.2411 18.6384 24.9892 19.199 24.9224 19.2205C24.9039 19.2265 24.8858 19.1559 24.881 19.0598C24.8557 18.545 24.5941 18.0438 24.1548 17.6683C23.6553 17.2414 22.9842 16.9016 21.3435 16.2445Z"
      fill="#F50DB4"
    />
    <path
      d="M19.6137 16.654C19.5828 16.4713 19.5293 16.238 19.4947 16.1355L19.4318 15.9492L19.5486 16.0796C19.7102 16.26 19.8379 16.4908 19.9461 16.7983C20.0287 17.0329 20.038 17.1027 20.0374 17.484C20.0368 17.8584 20.0264 17.9368 19.9502 18.1481C19.8299 18.4811 19.6806 18.7172 19.4302 18.9707C18.9801 19.4263 18.4015 19.6786 17.5665 19.7832C17.4213 19.8013 16.9983 19.832 16.6264 19.8512C15.6891 19.8997 15.0722 19.9999 14.5179 20.1934C14.4382 20.2213 14.3671 20.2382 14.3598 20.231C14.3374 20.2088 14.7148 19.9851 15.0265 19.8357C15.4661 19.6251 15.9036 19.5102 16.8839 19.3478C17.3682 19.2676 17.8683 19.1703 17.9953 19.1316C19.1945 18.7659 19.811 17.8222 19.6137 16.654Z"
      fill="#F50DB4"
    />
    <path
      d="M20.7431 18.6493C20.4158 17.9494 20.3406 17.2737 20.5199 16.6434C20.5391 16.5761 20.57 16.521 20.5885 16.521C20.6071 16.521 20.6844 16.5625 20.7602 16.6133C20.911 16.7143 21.2136 16.8844 22.0196 17.3215C23.0254 17.8668 23.5989 18.2892 23.9888 18.7717C24.3303 19.1943 24.5417 19.6755 24.6434 20.2624C24.701 20.5948 24.6673 21.3947 24.5815 21.7294C24.3111 22.7849 23.6826 23.614 22.7862 24.0978C22.6548 24.1686 22.5369 24.2268 22.5241 24.2271C22.5114 24.2274 22.5592 24.1063 22.6305 23.9581C22.932 23.3312 22.9664 22.7213 22.7384 22.0425C22.5988 21.6268 22.3142 21.1197 21.7395 20.2625C21.0713 19.266 20.9075 19.0008 20.7431 18.6493Z"
      fill="#F50DB4"
    />
    <path
      d="M11.4888 22.4254C12.4031 21.6576 13.5407 21.1121 14.5769 20.9447C15.0235 20.8725 15.7675 20.9012 16.181 21.0065C16.8439 21.1752 17.4369 21.5531 17.7453 22.0033C18.0467 22.4434 18.176 22.8269 18.3106 23.6801C18.3638 24.0166 18.4215 24.3546 18.439 24.4312C18.5401 24.8733 18.7368 25.2268 18.9806 25.4043C19.3679 25.6862 20.0346 25.7037 20.6905 25.4492C20.8019 25.406 20.8985 25.3762 20.9053 25.3829C20.9291 25.4064 20.5988 25.6263 20.3658 25.7421C20.0523 25.8978 19.803 25.958 19.4717 25.958C18.8709 25.958 18.3722 25.6541 17.956 25.0343C17.8741 24.9124 17.69 24.547 17.5469 24.2225C17.1075 23.2257 16.8906 22.9221 16.3803 22.5897C15.9364 22.3006 15.3638 22.2488 14.933 22.4589C14.3672 22.7348 14.2093 23.454 14.6145 23.9097C14.7756 24.0909 15.076 24.2472 15.3216 24.2775C15.7811 24.3343 16.176 23.9867 16.176 23.5253C16.176 23.2257 16.0602 23.0547 15.7687 22.9239C15.3707 22.7452 14.9427 22.9541 14.9448 23.326C14.9457 23.4846 15.0151 23.5842 15.175 23.6561C15.2775 23.7023 15.2799 23.706 15.1963 23.6887C14.831 23.6133 14.7455 23.1754 15.0392 22.8847C15.3917 22.5356 16.1208 22.6896 16.3712 23.166C16.4764 23.3662 16.4886 23.7647 16.3969 24.0054C16.1916 24.544 15.5932 24.8272 14.9862 24.6731C14.5728 24.5682 14.4045 24.4545 13.9062 23.944C13.0403 23.0569 12.7041 22.885 11.4558 22.6911L11.2166 22.654L11.4888 22.4254Z"
      fill="#F50DB4"
    />
    <path
      fill-rule="evenodd"
      clip-rule="evenodd"
      d="M7.42588 6.54724C10.3176 10.038 12.3094 11.4782 12.5307 11.7825C12.7134 12.0337 12.6447 12.2596 12.3316 12.4366C12.1575 12.535 11.7995 12.6347 11.6203 12.6347C11.4176 12.6347 11.348 12.557 11.348 12.557C11.2305 12.4461 11.1643 12.4655 10.5608 11.4C9.72285 10.1069 9.02163 9.03415 9.0025 9.0162C8.95826 8.97466 8.95902 8.97606 10.4753 11.6744C10.7203 12.2368 10.5241 12.4433 10.5241 12.5234C10.5241 12.6863 10.4794 12.772 10.2773 12.9962C9.94034 13.37 9.78972 13.79 9.681 14.6594C9.55912 15.6339 9.21639 16.3222 8.26659 17.5003C7.71061 18.19 7.61963 18.3164 7.47935 18.5943C7.30264 18.9444 7.25405 19.1404 7.23436 19.5824C7.21354 20.0498 7.25408 20.3517 7.39764 20.7985C7.52331 21.1897 7.6545 21.448 7.98987 21.9646C8.27929 22.4104 8.44594 22.7417 8.44594 22.8713C8.44594 22.9745 8.46573 22.9746 8.91421 22.8739C9.98747 22.6329 10.859 22.2089 11.3491 21.6894C11.6524 21.3677 11.7236 21.1902 11.726 20.7495C11.7275 20.4612 11.7173 20.4009 11.6389 20.2351C11.5114 19.9652 11.2793 19.7408 10.7676 19.3929C10.0972 18.937 9.8108 18.5701 9.7317 18.0654C9.66682 17.6513 9.74209 17.3591 10.113 16.586C10.4969 15.7857 10.592 15.4447 10.6564 14.6381C10.6979 14.117 10.7555 13.9114 10.906 13.7464C11.0631 13.5744 11.2044 13.5162 11.593 13.4634C12.2265 13.3773 12.6299 13.2142 12.9614 12.9104C13.2491 12.6468 13.3694 12.3927 13.3879 12.0103L13.4019 11.7205L13.2412 11.5341C12.6591 10.8591 7.03604 6.0166 7.00022 6.0166C6.99257 6.0166 7.18412 6.25541 7.42588 6.54724ZM8.7727 20.1112C8.90431 19.8794 8.83438 19.5814 8.61423 19.4358C8.40622 19.2982 8.08309 19.363 8.08309 19.5423C8.08309 19.597 8.1135 19.6368 8.18205 19.6719C8.29747 19.731 8.30584 19.7974 8.21503 19.9331C8.12306 20.0706 8.13049 20.1915 8.23598 20.2736C8.40599 20.406 8.64665 20.3332 8.7727 20.1112Z"
      fill="#F50DB4"
    />
    <path
      fill-rule="evenodd"
      clip-rule="evenodd"
      d="M13.8016 13.6155C13.5042 13.7064 13.2151 14.0199 13.1256 14.3486C13.0711 14.5491 13.102 14.9009 13.1838 15.0095C13.3159 15.185 13.4436 15.2312 13.7896 15.2288C14.4669 15.2241 15.0556 14.9352 15.1241 14.574C15.1802 14.278 14.9216 13.8677 14.5654 13.6876C14.3816 13.5947 13.9907 13.5578 13.8016 13.6155ZM14.5934 14.2313C14.6978 14.0837 14.6521 13.9242 14.4745 13.8163C14.1362 13.6108 13.6247 13.7808 13.6247 14.0987C13.6247 14.2569 13.8914 14.4295 14.1359 14.4295C14.2987 14.4295 14.5214 14.333 14.5934 14.2313Z"
      fill="#F50DB4"
    />
  </g>
  <defs>
    <linearGradient
      id="paint0_linear_6925_10102"
      x1="0"
      y1="0"
      x2="32"
      y2="32"
      gradientUnits="userSpaceOnUse"
    >
      <stop stop-color="#F84FC8" stop-opacity="0.08" />
      <stop offset="1" stop-color="#F50DB4" stop-opacity="0.24" />
    </linearGradient>
    <linearGradient
      id="paint1_linear_6925_10102"
      x1="0"
      y1="0"
      x2="32"
      y2="32"
      gradientUnits="userSpaceOnUse"
    >
      <stop stop-color="#F84FC8" stop-opacity="0.08" />
      <stop offset="1" stop-color="#F50DB4" stop-opacity="0.24" />
    </linearGradient>
    <clipPath id="clip0_6925_10102">
      <rect
        width="18.4332"
        height="20"
        fill="white"
        transform="translate(7 6)"
      />
    </clipPath>
  </defs>
</svg>
