<svg
  width="20"
  height="20"
  viewBox="0 0 20 20"
  fill="none"
  xmlns="http://www.w3.org/2000/svg"
>
  <g clip-path="url(#clip0_vusd_new)">
    <g clip-path="url(#clip1_vusd_new)">
      <mask
        id="mask0_vusd_new"
        style="mask-type: luminance"
        maskUnits="userSpaceOnUse"
        x="0"
        y="0"
        width="20"
        height="20"
      >
        <path d="M20 0H0V20H20V0Z" fill="white" />
      </mask>
      <g mask="url(#mask0_vusd_new)">
        <circle cx="10" cy="10" r="10" fill="#152EC6" />
        <path
          d="M15.8169 5.89575L11.4436 15.4530H8.59015L4.2 5.89575H7.155L10.0084 13.1732L12.8788 5.89575H15.8169ZM10.0084 9.68685C10.5496 9.68685 10.9878 9.24860 10.9878 8.70750C10.9878 8.16640 10.5496 7.72815 10.0084 7.72815C9.46730 7.72815 9.02905 8.16640 9.02905 8.70750C9.02905 9.24860 9.46730 9.68685 10.0084 9.68685ZM14.6599 11.5557C14.1188 11.5557 13.6805 11.9940 13.6805 12.5351C13.6805 13.0762 14.1188 13.5144 14.6599 13.5144C15.2010 13.5144 15.6393 13.0762 15.6393 12.5351C15.6393 11.9940 15.2010 11.5557 14.6599 11.5557Z"
          fill="white"
        />
      </g>
    </g>
  </g>
  <rect x="10.5" y="10.5" width="9" height="9" rx="2.5" fill="#FFEBD4" />
  <rect x="10.5" y="10.5" width="9" height="9" rx="2.5" stroke="white" />
  <path
    d="M15.5767 12.0009C15.5459 11.9954 15.5168 12.0157 15.5114 12.0472L15.139 14.1982H14.861L14.4886 12.0472C14.4832 12.0157 14.4541 11.9954 14.4233 12.0009C13.1008 12.2617 12.0872 13.4084 12.0036 14.8104C12.0036 14.8123 12 14.8715 12 14.901C12 14.9047 12 14.9084 12 14.9103C12 14.9214 12 14.9325 12 14.9436C12 14.9473 12 14.951 12 14.9565C12 14.9713 12 14.9843 12 14.9991C12 16.4861 13.0427 17.7235 14.4251 17.9972C14.4559 18.0028 14.485 17.9824 14.4905 17.951L14.8629 15.7999H15.1408L15.5114 17.9529C15.5168 17.9843 15.5459 18.0046 15.5767 17.9991C16.8992 17.7364 17.911 16.5897 17.9964 15.1877C17.9964 15.1859 18 15.1267 18 15.0971C18 15.0934 18 15.0897 18 15.0879C18 15.0768 18 15.0657 18 15.0546C18 15.0509 18 15.0472 18 15.0416C18 15.0268 18 15.0139 18 14.9991C18.0018 13.512 16.9591 12.2746 15.5767 12.0009Z"
    fill="#FF4600"
  />
  <defs>
    <clipPath id="clip0_vusd_new">
      <rect width="20" height="20" fill="white" />
    </clipPath>
    <clipPath id="clip1_vusd_new">
      <rect width="20" height="20" fill="white" />
    </clipPath>
  </defs>
</svg>
