<svg
  fill="none"
  height="32"
  viewBox="0 0 32 32"
  width="32"
  xmlns="http://www.w3.org/2000/svg"
>
  <path
    d="M16 0C7.16394 0 0 7.16394 0 16C0 24.8361 7.16394 32 16 32C24.8334 31.9893 31.9893 24.8307 32 16C32 7.16394 24.8361 0 16 0Z"
    fill="#4138AC"
  />
  <path
    d="M16 32C24.8366 32 32 24.8366 32 16C32 7.16344 24.8366 0 16 0C7.16344 0 0 7.16344 0 16C0 24.8366 7.16344 32 16 32Z"
    fill="#4138AC"
  />
  <path
    d="M20.8801 8.96143L17.1219 20.5701L13.3609 8.96143H6.23975L7.34826 12.1027H10.6498L15.415 25.5945H18.8287L24.7025 8.96143H20.8801Z"
    fill="white"
  />
</svg>
