<svg
  width="20"
  height="20"
  viewBox="0 0 20 20"
  fill="none"
  xmlns="http://www.w3.org/2000/svg"
>
  <g clip-path="url(#clip0_13489_8557)">
    <g clip-path="url(#clip1_13489_8557)">
      <path
        d="M10 0C4.47746 0 0 4.47746 0 10C0 15.5226 4.47746 20 10 20C15.5209 19.9933 19.9933 15.5192 20 10C20 4.47746 15.5226 0 10 0Z"
        fill="#4138AC"
      />
      <path
        d="M10 20C15.5229 20 20 15.5229 20 10C20 4.47715 15.5229 0 10 0C4.47715 0 0 4.47715 0 10C0 15.5229 4.47715 20 10 20Z"
        fill="#4138AC"
      />
      <path
        d="M13.0501 5.60107L10.7012 12.8565L8.35062 5.60107H3.8999L4.59272 7.56437H6.65618L9.63443 15.9967H11.768L15.4391 5.60107H13.0501Z"
        fill="white"
      />
    </g>
  </g>
  <rect x="10.5" y="10.5" width="9" height="9" rx="2.5" fill="#FFEBD4" />
  <rect x="10.5" y="10.5" width="9" height="9" rx="2.5" stroke="white" />
  <path
    d="M15.5767 12.0009C15.5459 11.9954 15.5168 12.0157 15.5114 12.0472L15.139 14.1982H14.861L14.4886 12.0472C14.4832 12.0157 14.4541 11.9954 14.4233 12.0009C13.1008 12.2617 12.0872 13.4084 12.0036 14.8104C12.0036 14.8123 12 14.8715 12 14.901C12 14.9047 12 14.9084 12 14.9103C12 14.9214 12 14.9325 12 14.9436C12 14.9473 12 14.951 12 14.9565C12 14.9713 12 14.9843 12 14.9991C12 16.4861 13.0427 17.7235 14.4251 17.9972C14.4559 18.0028 14.485 17.9824 14.4905 17.951L14.8629 15.7999H15.1408L15.5114 17.9529C15.5168 17.9843 15.5459 18.0046 15.5767 17.9991C16.8992 17.7364 17.911 16.5897 17.9964 15.1877C17.9964 15.1859 18 15.1267 18 15.0971C18 15.0934 18 15.0897 18 15.0879C18 15.0768 18 15.0657 18 15.0546C18 15.0509 18 15.0472 18 15.0416C18 15.0268 18 15.0139 18 14.9991C18.0018 13.512 16.9591 12.2746 15.5767 12.0009Z"
    fill="#FF4600"
  />
  <defs>
    <clipPath id="clip0_13489_8557">
      <rect width="20" height="20" fill="white" />
    </clipPath>
    <clipPath id="clip1_13489_8557">
      <rect width="20" height="20" fill="white" />
    </clipPath>
  </defs>
</svg>
