<svg
  width="20"
  height="20"
  viewBox="0 0 20 20"
  fill="none"
  xmlns="http://www.w3.org/2000/svg"
>
  <g clip-path="url(#clip0_13489_8441)">
    <g clip-path="url(#clip1_13489_8441)">
      <mask
        id="mask0_13489_8441"
        style="mask-type: luminance"
        maskUnits="userSpaceOnUse"
        x="0"
        y="0"
        width="20"
        height="20"
      >
        <path d="M20 0H0V20H20V0Z" fill="white" />
      </mask>
      <g mask="url(#mask0_13489_8441)">
        <path
          d="M10 20C15.5229 20 20 15.5229 20 10C20 4.47715 15.5229 0 10 0C4.47715 0 0 4.47715 0 10C0 15.5229 4.47715 20 10 20Z"
          fill="#D3B25A"
        />
        <path
          fill-rule="evenodd"
          clip-rule="evenodd"
          d="M10.0122 10.7148C11.732 10.7148 13.1692 10.424 13.5205 10.0355C13.2222 9.706 12.1435 9.4465 10.7735 9.3755V10.1963C10.5282 10.209 10.2732 10.2153 10.012 10.2153C9.75071 10.2153 9.49571 10.209 9.24996 10.1963V9.3755C7.88046 9.4465 6.80121 9.706 6.50296 10.0355C6.85471 10.424 8.29246 10.7148 10.0122 10.7148ZM13.0677 6.8515V7.98175H10.7735V8.7655C12.385 8.84925 13.5942 9.19375 13.6032 9.606V10.4655C13.5942 10.8778 12.385 11.2215 10.7735 11.3055V13.229H9.25021V11.3055C7.63871 11.2218 6.42996 10.8778 6.42096 10.4655V9.606C6.42996 9.19375 7.63871 8.84925 9.25021 8.7655V7.98175H6.95596V6.8515H13.0677ZM6.05371 5.05273H14.1077C14.3002 5.05273 14.4775 5.15398 14.5735 5.31848L16.9197 9.3475C17.0412 9.5565 17.0052 9.82025 16.8317 9.9895L10.3732 16.294C10.1637 16.4983 9.82721 16.4983 9.61821 16.294L3.16771 9.998C2.99046 9.8245 2.95696 9.55325 3.08771 9.34325L5.59596 5.30598C5.69371 5.14898 5.86696 5.05273 6.05371 5.05273Z"
          fill="white"
        />
      </g>
    </g>
  </g>
  <rect x="10.5" y="10.5" width="9" height="9" rx="2.5" fill="#FFEBD4" />
  <rect x="10.5" y="10.5" width="9" height="9" rx="2.5" stroke="white" />
  <path
    d="M15.5767 12.0009C15.5459 11.9954 15.5168 12.0157 15.5114 12.0472L15.139 14.1982H14.861L14.4886 12.0472C14.4832 12.0157 14.4541 11.9954 14.4233 12.0009C13.1008 12.2617 12.0872 13.4084 12.0036 14.8104C12.0036 14.8123 12 14.8715 12 14.901C12 14.9047 12 14.9084 12 14.9103C12 14.9214 12 14.9325 12 14.9436C12 14.9473 12 14.951 12 14.9565C12 14.9713 12 14.9843 12 14.9991C12 16.4861 13.0427 17.7235 14.4251 17.9972C14.4559 18.0028 14.485 17.9824 14.4905 17.951L14.8629 15.7999H15.1408L15.5114 17.9529C15.5168 17.9843 15.5459 18.0046 15.5767 17.9991C16.8992 17.7364 17.911 16.5897 17.9964 15.1877C17.9964 15.1859 18 15.1267 18 15.0971C18 15.0934 18 15.0897 18 15.0879C18 15.0768 18 15.0657 18 15.0546C18 15.0509 18 15.0472 18 15.0416C18 15.0268 18 15.0139 18 14.9991C18.0018 13.512 16.9591 12.2746 15.5767 12.0009Z"
    fill="#FF6C15"
  />
  <defs>
    <clipPath id="clip0_13489_8441">
      <rect width="20" height="20" fill="white" />
    </clipPath>
    <clipPath id="clip1_13489_8441">
      <rect width="20" height="20" fill="white" />
    </clipPath>
  </defs>
</svg>
