<svg
  width="20"
  height="20"
  viewBox="0 0 20 20"
  fill="none"
  xmlns="http://www.w3.org/2000/svg"
>
  <g clip-path="url(#clip0_13486_24808)">
    <path
      d="M20 10C20 4.47715 15.5228 0 10 0C4.47715 0 0 4.47715 0 10C0 15.5228 4.47715 20 10 20C15.5228 20 20 15.5228 20 10Z"
      fill="black"
    />
    <mask
      id="mask0_13486_24808"
      style="mask-type: luminance"
      maskUnits="userSpaceOnUse"
      x="6"
      y="3"
      width="8"
      height="14"
    >
      <path d="M13.3607 3.75H6.25V16.25H13.3607V3.75Z" fill="white" />
    </mask>
    <g mask="url(#mask0_13486_24808)">
      <path
        d="M11.9347 11.0011C12.7872 10.507 13.3603 9.58424 13.3603 8.52725V7.31481C13.3603 5.35326 11.7705 3.7627 9.80896 3.7627C7.8474 3.7627 6.25684 5.35326 6.25684 7.31481V8.61412H8.42202V8.69856C8.15921 8.76412 7.91052 8.86593 7.6824 8.99931C6.8299 9.49343 6.25684 10.4162 6.25684 11.4732V12.6856C6.25684 14.6472 7.84659 16.2377 9.80815 16.2377C11.7697 16.2377 13.3603 14.6472 13.3603 12.6856V11.3864H11.1951V11.3019C11.4579 11.2364 11.7066 11.1345 11.9347 11.0011ZM10.502 13.119C10.502 13.5018 10.1918 13.8121 9.80896 13.8121C9.42609 13.8121 9.1159 13.5018 9.1159 13.119V6.88143C9.1159 6.49862 9.42609 6.1884 9.80896 6.1884C10.1918 6.1884 10.502 6.49862 10.502 6.88143V13.119Z"
        fill="#F2F2F2"
      />
    </g>
  </g>
  <rect x="10.5" y="10.5" width="9" height="9" rx="2.5" fill="#FFEBD4" />
  <rect x="10.5" y="10.5" width="9" height="9" rx="2.5" stroke="white" />
  <path
    d="M15.5767 12.0009C15.5459 11.9954 15.5168 12.0157 15.5114 12.0472L15.139 14.1982H14.861L14.4886 12.0472C14.4832 12.0157 14.4541 11.9954 14.4233 12.0009C13.1008 12.2617 12.0872 13.4084 12.0036 14.8104C12.0036 14.8123 12 14.8715 12 14.901C12 14.9047 12 14.9084 12 14.9103C12 14.9214 12 14.9325 12 14.9436C12 14.9473 12 14.951 12 14.9565C12 14.9713 12 14.9843 12 14.9991C12 16.4861 13.0427 17.7235 14.4251 17.9972C14.4559 18.0028 14.485 17.9824 14.4905 17.951L14.8629 15.7999H15.1408L15.5114 17.9529C15.5168 17.9843 15.5459 18.0046 15.5767 17.9991C16.8992 17.7364 17.911 16.5897 17.9964 15.1877C17.9964 15.1859 18 15.1267 18 15.0971C18 15.0934 18 15.0897 18 15.0879C18 15.0768 18 15.0657 18 15.0546C18 15.0509 18 15.0472 18 15.0416C18 15.0268 18 15.0139 18 14.9991C18.0018 13.512 16.9591 12.2746 15.5767 12.0009Z"
    fill="#FF4600"
  />
  <defs>
    <clipPath id="clip0_13486_24808">
      <rect width="20" height="20" fill="white" />
    </clipPath>
  </defs>
</svg>
