<svg
  width="32"
  height="32"
  viewBox="0 0 32 32"
  fill="none"
  xmlns="http://www.w3.org/2000/svg"
>
  <rect width="32" height="32" rx="16" fill="black" />
  <g clip-path="url(#clip0_6883_9948)">
    <path
      d="M19.0956 17.6015C20.4596 16.8109 21.3765 15.3345 21.3765 13.6433V11.7034C21.3765 8.56492 18.8329 6.02002 15.6944 6.02002C12.5559 6.02002 10.011 8.56492 10.011 11.7034V13.7823H13.4753V13.9174C13.0548 14.0223 12.6569 14.1852 12.2919 14.3986C10.9279 15.1892 10.011 16.6656 10.011 18.3568V20.2967C10.011 23.4352 12.5546 25.9801 15.6931 25.9801C18.8316 25.9801 21.3765 23.4352 21.3765 20.2967V18.2179H17.9122V18.0827C18.3327 17.9779 18.7306 17.8149 19.0956 17.6015ZM16.8033 20.9901C16.8033 21.6026 16.3069 22.099 15.6944 22.099C15.0818 22.099 14.5855 21.6026 14.5855 20.9901V11.01C14.5855 10.3975 15.0818 9.90115 15.6944 9.90115C16.3069 9.90115 16.8033 10.3975 16.8033 11.01V20.9901Z"
      fill="#F2F2F2"
    />
  </g>
  <defs>
    <clipPath id="clip0_6883_9948">
      <rect
        width="11.3772"
        height="20"
        fill="white"
        transform="translate(10 6)"
      />
    </clipPath>
  </defs>
</svg>
