<svg
  width="78"
  height="28"
  viewBox="0 0 78 28"
  fill="none"
  xmlns="http://www.w3.org/2000/svg"
>
  <path
    d="M32.3211 6.39883V12.8285L31.9985 12.721C32.2135 11.7892 32.6508 11.1082 33.3102 10.6781C33.9697 10.2337 34.7582 10.0115 35.6757 10.0115C36.8512 10.0115 37.7831 10.4057 38.4712 11.1942C39.1737 11.9684 39.5249 13.0149 39.5249 14.3338V21.6667H37.2455V15.151C37.2455 14.1044 37.0663 13.3231 36.7079 12.807C36.3495 12.2909 35.7904 12.0329 35.0306 12.0329C34.1991 12.0329 33.5396 12.3053 33.0522 12.85C32.5648 13.3805 32.3211 14.1474 32.3211 15.151V21.6667H30.0416V6.39883H32.3211ZM41.3559 15.9681C41.3559 14.7782 41.5781 13.7317 42.0226 12.8285C42.4813 11.9254 43.1193 11.2301 43.9364 10.7426C44.7536 10.2552 45.7069 10.0115 46.7964 10.0115C47.7283 10.0115 48.5741 10.2265 49.3339 10.6566C50.1081 11.0867 50.7245 11.7462 51.1833 12.635C51.642 13.5095 51.8929 14.5918 51.9359 15.8821L51.9574 16.6132H43.7644C43.8361 17.6741 44.1371 18.5056 44.6675 19.1077C45.198 19.6955 45.9076 19.9894 46.7964 19.9894C47.3699 19.9894 47.886 19.8317 48.3447 19.5163C48.8178 19.2009 49.1691 18.7708 49.3984 18.226L51.7854 18.3981C51.4556 19.4733 50.832 20.3334 49.9145 20.9785C49.0114 21.6093 47.972 21.9247 46.7964 21.9247C45.7069 21.9247 44.7536 21.681 43.9364 21.1936C43.1193 20.7062 42.4813 20.0109 42.0226 19.1077C41.5781 18.2045 41.3559 17.158 41.3559 15.9681ZM49.549 14.9144C49.4199 13.8966 49.1045 13.1511 48.6028 12.678C48.1154 12.1906 47.5132 11.9469 46.7964 11.9469C45.965 11.9469 45.2912 12.2121 44.7751 12.7425C44.259 13.2586 43.9364 13.9826 43.8074 14.9144H49.549ZM56.0264 10.2695L56.0694 12.1404C56.3418 11.4666 56.7575 10.9433 57.3166 10.5706C57.89 10.1979 58.5567 10.0115 59.3165 10.0115C60.1336 10.0115 60.8289 10.2194 61.4024 10.6351C61.9758 11.0509 62.3844 11.6315 62.6281 12.3769C62.8861 11.6028 63.3019 11.015 63.8753 10.6136C64.4631 10.2122 65.1871 10.0115 66.0472 10.0115C66.807 10.0115 67.4593 10.1835 68.0041 10.5276C68.5632 10.8573 68.9861 11.3447 69.2728 11.9899C69.5739 12.635 69.7244 13.4163 69.7244 14.3338V21.6667H67.445V15.0434C67.445 14.0399 67.273 13.2729 66.9289 12.7425C66.5848 12.1977 66.0902 11.9254 65.4451 11.9254C64.9147 11.9254 64.4559 12.0472 64.0689 12.2909C63.6961 12.5346 63.4094 12.893 63.2087 13.3661C63.008 13.8249 62.9076 14.384 62.9076 15.0434V21.6667H60.7572V15.0434C60.7572 14.0399 60.578 13.2729 60.2196 12.7425C59.8756 12.1977 59.3882 11.9254 58.7574 11.9254C58.2269 11.9254 57.7682 12.0472 57.3811 12.2909C57.0084 12.5346 56.7217 12.893 56.521 13.3661C56.3203 13.8249 56.2199 14.384 56.2199 15.0434V21.6667H53.9405V10.2695H56.0264ZM74.8158 10.2695V21.6667H72.5364V10.2695H74.8158ZM74.8803 6.42033V8.63524H72.4934V6.42033H74.8803Z"
    fill="#000202"
  />
  <path
    d="M13.4326 2.90965C13.3166 2.88894 13.2074 2.96489 13.187 3.08228L11.7885 11.1129H10.7447L9.34618 3.08228C9.32571 2.96489 9.21656 2.88894 9.10058 2.90965C4.13415 3.88327 0.327456 8.16442 0.0136428 13.3985C0.0136428 13.4054 0 13.6263 0 13.7368C0 13.7506 0 13.7644 0 13.7714C0 13.8128 0 13.8542 0 13.8956C0 13.9095 0 13.9233 0 13.944C0 13.9992 0 14.0476 0 14.1028C0 19.6545 3.91584 24.274 9.10741 25.2959C9.22338 25.3167 9.33253 25.2407 9.353 25.1233L10.7515 17.0927H11.7953L13.187 25.1302C13.2074 25.2476 13.3166 25.3236 13.4326 25.3028C18.399 24.3223 22.1989 20.0412 22.5195 14.8071C22.5195 14.8002 22.5332 14.5792 22.5332 14.4688C22.5332 14.455 22.5332 14.4411 22.5332 14.4342C22.5332 14.3928 22.5332 14.3514 22.5332 14.3099C22.5332 14.2961 22.5332 14.2823 22.5332 14.2616C22.5332 14.2064 22.5332 14.158 22.5332 14.1028C22.54 8.55111 18.6241 3.9316 13.4326 2.90965Z"
    fill="#FF6C15"
  />
</svg>
